<?xml version="1.0" encoding="UTF-8" standalone="no"?>
<svg
   version="1.1"
   width="1500.0001pt"
   height="1500.0001pt"
   id="svg671"
   viewBox="0 0 1500.0001 1500.0001"
   sodipodi:docname="Untitled-1.cdr"
   xmlns:inkscape="http://www.inkscape.org/namespaces/inkscape"
   xmlns:sodipodi="http://sodipodi.sourceforge.net/DTD/sodipodi-0.dtd"
   xmlns:xlink="http://www.w3.org/1999/xlink"
   xmlns="http://www.w3.org/2000/svg"
   xmlns:svg="http://www.w3.org/2000/svg">
  <sodipodi:namedview
     id="namedview673"
     pagecolor="#ffffff"
     bordercolor="#000000"
     borderopacity="0.25"
     inkscape:showpageshadow="2"
     inkscape:pageopacity="0.0"
     inkscape:pagecheckerboard="0"
     inkscape:deskcolor="#d1d1d1"
     inkscape:document-units="pt" />
  <defs
     id="defs8">
    <linearGradient
       id="grad1">
      <stop
         offset="0%"
         stop-color="#0071bc"
         stop-opacity="1.0000"
         id="stop2" />
      <stop
         offset="100%"
         stop-color="#29dbe2"
         stop-opacity="1.0000"
         id="stop4" />
    </linearGradient>
    <linearGradient
       xlink:href="#grad1"
       id="grad2"
       x1="0"
       y1="0"
       x2="0"
       y2="1"
       gradientTransform="rotate(147,0.5,0.5)"
       gradientUnits="objectBoundingBox" />
  </defs>
  <path
     d="m 394.5511,1010.3271 v -1.6081 h -43.829 v 1.6081 c 2.6129,0 8.041,4.0209 8.041,7.037 v 24.529 c -0.4022,6.433 -6.4332,9.4491 -14.2741,9.4491 -27.343,0 -28.5489,-40.813 -28.5489,-55.8922 0,-16.2839 2.6138,-52.6759 30.1578,-52.2728 17.2902,0.201 26.1371,17.2899 28.749,35.3849 0.4031,1.4071 3.016,-1.408 3.016,-2.8151 l -1.4068,-35.1828 c 0,-0.2021 -1.2061,-0.2021 -1.2061,0 l -2.2119,3.418 c -8.0422,-5.631 -17.0892,-8.6462 -26.9402,-8.8472 -0.343,-0.007 -0.6843,-0.01 -1.027,-0.0108 h -0.1468 c -31.502,9e-4 -59.9451,23.9809 -59.9451,59.9239 0,33.7759 26.1371,64.135 59.51,64.135 19.502,0 32.3699,-7.439 40.814,-13.2701 l 1.8091,1.8102 c 0,0 1.0049,0.4019 1.0049,0 v -5.8301 -24.529 c 0,-4.2219 4.6239,-7.037 6.4341,-7.037 z"
     style="fill:url(#grad2)"
     id="path10" />
  <defs
     id="defs18">
    <linearGradient
       id="grad3">
      <stop
         offset="0%"
         stop-color="#0071bc"
         stop-opacity="1.0000"
         id="stop12" />
      <stop
         offset="100%"
         stop-color="#29dbe2"
         stop-opacity="1.0000"
         id="stop14" />
    </linearGradient>
    <linearGradient
       xlink:href="#grad3"
       id="grad4"
       x1="0"
       y1="0"
       x2="0"
       y2="1"
       gradientTransform="rotate(141,0.5,0.5)"
       gradientUnits="objectBoundingBox" />
  </defs>
  <path
     d="m 475.572,980.9752 v -1.6092 l -27.9459,-0.1999 v 1.6081 c 1.8088,0 12.263,4.4218 8.644,15.48 l -15.0772,37.5959 c -4.625,-14.4751 -13.0689,-43.4259 -13.0689,-43.4259 -1.809,-4.424 6.4341,-10.0522 8.0419,-10.0522 v -1.6098 h -43.628 v 1.6098 c 1.8102,0 6.232,5.8291 8.4441,10.0522 l 26.739,71.9748 h 2.0111 l -4.623,11.4602 c -4.0221,9.248 -14.4762,10.2549 -18.0961,4.6238 -8.4441,1.408 -7.8409,19.5021 5.4281,19.5021 9.4498,0 15.08,-12.867 17.6919,-19.904 l 32.1689,-81.8269 c 4.6242,-11.4602 9.8521,-15.279 13.2701,-15.279 z"
     style="fill:url(#grad4)"
     id="path20" />
  <defs
     id="defs28">
    <linearGradient
       id="grad5">
      <stop
         offset="0%"
         stop-color="#0071bc"
         stop-opacity="1.0000"
         id="stop22" />
      <stop
         offset="100%"
         stop-color="#29dbe2"
         stop-opacity="1.0000"
         id="stop24" />
    </linearGradient>
    <linearGradient
       xlink:href="#grad5"
       id="grad6"
       x1="0"
       y1="0"
       x2="0"
       y2="1"
       gradientTransform="rotate(150,0.5,0.5)"
       gradientUnits="objectBoundingBox" />
  </defs>
  <path
     d="m 475.1701,1000.2752 c 0,5.2268 2.8159,12.0628 10.857,13.4699 6.8349,1.2059 15.4808,-4.0201 14.0729,-13.0691 -6.8349,-4.4218 -3.4169,-15.48 2.6141,-15.48 4.8248,0 7.8409,3.4191 7.8409,9.6511 v 19.7031 c -59.5111,5.2268 -44.231,67.1499 1.6081,35.1839 2.4128,5.0261 8.2428,9.449 15.482,9.449 8.6439,0 20.7079,-3.8211 21.914,-11.662 0,-0.6021 -0.4022,-0.8031 -0.8042,-0.8031 -0.4019,0 -0.8039,0.201 -1.006,0.8031 -0.8039,2.815 -3.619,4.022 -6.031,3.8211 -3.217,-0.402 -3.8199,-3.0161 -3.8199,-6.8372 l -0.2019,-33.1719 c 0,-22.2281 -17.4951,-31.854 -33.978,-31.8529 -14.675,0 -28.548,7.632 -28.548,20.795 z m 35.3849,17.8928 0.2001,25.5342 c -2.6651,0.836 -5.019,1.209 -7.069,1.209 -16.1941,0 -13.2971,-23.3521 6.8689,-26.7432 z"
     style="fill:url(#grad6)"
     id="path30" />
  <defs
     id="defs38">
    <linearGradient
       id="grad7">
      <stop
         offset="0%"
         stop-color="#0071bc"
         stop-opacity="1.0000"
         id="stop32" />
      <stop
         offset="100%"
         stop-color="#29dbe2"
         stop-opacity="1.0000"
         id="stop34" />
    </linearGradient>
    <linearGradient
       xlink:href="#grad7"
       id="grad8"
       x1="0"
       y1="0"
       x2="0"
       y2="1"
       gradientTransform="rotate(151,0.5,0.5)"
       gradientUnits="objectBoundingBox" />
  </defs>
  <path
     d="m 551.5689,1059.1831 h 43.626 v -1.609 c -1.8079,0 -8.4429,-4.0221 -8.4429,-7.037 v -50.0601 c 7.2371,-9.25 23.7231,-18.699 23.7231,3.2162 v 46.8439 c 0,3.0149 -6.4332,7.037 -8.041,7.037 v 1.609 h 43.6269 v -1.609 c -1.81,0 -8.443,-4.0221 -8.443,-7.037 v -46.8439 c 0,-33.1742 -23.5239,-36.1891 -50.866,-9.851 v -12.867 -4.6261 c 0,-0.686 -0.2821,-0.997 -0.6529,-0.997 -0.172,0 -0.3631,0.0661 -0.555,0.1939 -8.242,5.4292 -20.5061,8.6451 -31.5632,9.449 -1.006,0.201 -0.8039,1.0052 0,1.6081 1.004,0.8059 5.629,2.8151 5.629,7.2391 v 56.6949 c 0,3.0149 -6.4329,7.037 -8.041,7.037 z"
     style="fill:url(#grad8)"
     id="path40" />
  <defs
     id="defs48">
    <linearGradient
       id="grad9">
      <stop
         offset="0%"
         stop-color="#0071bc"
         stop-opacity="1.0000"
         id="stop42" />
      <stop
         offset="100%"
         stop-color="#29dbe2"
         stop-opacity="1.0000"
         id="stop44" />
    </linearGradient>
    <linearGradient
       xlink:href="#grad9"
       id="grad10"
       x1="0"
       y1="0"
       x2="0"
       y2="1"
       gradientTransform="rotate(145,0.5,0.5)"
       gradientUnits="objectBoundingBox" />
  </defs>
  <path
     d="m 739.9481,935.135 h -43.6272 v 1.6081 c 1.6081,0 8.0422,7.037 8.0422,10.0531 v 100.7249 c 0,3.016 -6.4341,10.053 -8.0422,10.053 v 1.609 h 43.6272 v -1.609 c -1.8091,0 -8.443,-7.037 -8.443,-10.053 v -36.5899 c 30.5589,0 65.5418,-9.2481 65.5418,-38.6022 0,-28.749 -27.3429,-37.194 -57.0988,-37.194 z m -8.443,6.8352 h 2.412 c 27.9459,0 34.9838,15.2799 34.9838,29.9568 0,11.6612 -7.0379,32.7722 -37.3958,32.7722 z"
     style="fill:url(#grad10)"
     id="path50" />
  <defs
     id="defs58">
    <linearGradient
       id="grad11">
      <stop
         offset="0%"
         stop-color="#0071bc"
         stop-opacity="1.0000"
         id="stop52" />
      <stop
         offset="100%"
         stop-color="#29dbe2"
         stop-opacity="1.0000"
         id="stop54" />
    </linearGradient>
    <linearGradient
       xlink:href="#grad11"
       id="grad12"
       x1="0"
       y1="0"
       x2="0"
       y2="1"
       gradientTransform="rotate(146,0.5,0.5)"
       gradientUnits="objectBoundingBox" />
  </defs>
  <path
     d="m 835.0451,975.546 c -8.2432,5.4292 -20.5081,8.6451 -31.5661,9.449 -1.0051,0.201 -0.803,1.0052 0,1.6081 1.0069,0.8059 5.6299,2.8151 5.6299,7.2391 v 56.6949 c 0,3.0149 -6.4329,7.037 -8.041,7.037 v 1.609 h 43.6272 v -1.609 c -1.8091,0 -8.4442,-4.0221 -8.4442,-7.037 V 996.053 c 5.6291,-9.8519 18.095,-7.238 20.306,2.6141 3.0152,8.6439 19.3,-2.2119 14.675,-14.476 -4.623,-12.4659 -25.1289,-10.4539 -34.981,5.4281 v -8.644 -4.6261 c 0,-0.686 -0.282,-0.997 -0.6528,-0.997 -0.1712,0 -0.362,0.0661 -0.553,0.1939 z"
     style="fill:url(#grad12)"
     id="path60" />
  <defs
     id="defs68">
    <linearGradient
       id="grad13">
      <stop
         offset="0%"
         stop-color="#0071bc"
         stop-opacity="1.0000"
         id="stop62" />
      <stop
         offset="100%"
         stop-color="#29dbe2"
         stop-opacity="1.0000"
         id="stop64" />
    </linearGradient>
    <linearGradient
       xlink:href="#grad13"
       id="grad14"
       x1="0"
       y1="0"
       x2="0"
       y2="1"
       gradientTransform="rotate(150,0.5,0.5)"
       gradientUnits="objectBoundingBox" />
  </defs>
  <path
     d="m 877.664,1000.2752 c 0,5.2268 2.8139,12.0628 10.857,13.4699 6.8371,1.2059 15.4811,-4.0201 14.0731,-13.0691 -6.8371,-4.4218 -3.418,-15.48 2.613,-15.48 4.826,0 7.8418,3.4191 7.8418,9.6511 v 19.7031 c -59.51,5.2268 -44.2299,67.1499 1.6092,35.1839 2.412,5.0261 8.2429,9.449 15.48,9.449 8.6448,0 20.7079,-3.8211 21.9138,-11.662 0,-0.6021 -0.402,-0.8031 -0.8039,-0.8031 -0.402,0 -0.8051,0.201 -1.006,0.8031 -0.802,2.815 -3.617,4.022 -6.031,3.8211 -3.2171,-0.402 -3.818,-3.0161 -3.818,-6.8372 l -0.2021,-33.1719 c 0,-22.2281 -17.496,-31.854 -33.9778,-31.8529 -14.6761,0 -28.5491,7.632 -28.5491,20.795 z m 35.3849,17.8928 0.2012,25.5342 c -2.666,0.836 -5.0201,1.209 -7.0701,1.209 -16.1941,0 -13.2971,-23.3521 6.8689,-26.7432 z"
     style="fill:url(#grad14)"
     id="path70" />
  <defs
     id="defs78">
    <linearGradient
       id="grad15">
      <stop
         offset="0%"
         stop-color="#0071bc"
         stop-opacity="1.0000"
         id="stop72" />
      <stop
         offset="100%"
         stop-color="#29dbe2"
         stop-opacity="1.0000"
         id="stop74" />
    </linearGradient>
    <linearGradient
       xlink:href="#grad15"
       id="grad16"
       x1="0"
       y1="0"
       x2="0"
       y2="1"
       gradientTransform="rotate(140,0.5,0.5)"
       gradientUnits="objectBoundingBox" />
  </defs>
  <path
     d="m 984.775,935.1421 h -0.008 c -0.1698,0.002 -0.358,0.0689 -0.5459,0.1939 -8.2418,5.428 -20.1059,9.047 -31.5649,9.4501 -1.0061,0.1999 -0.804,1.0049 0,1.6081 1.006,0.8039 5.629,2.814 5.629,7.238 v 91.4769 14.6769 c 0,0.4011 0.2021,0.6032 0.6041,0 3.016,-4.6239 4.625,-7.4398 9.449,-7.4398 11.66,0 16.285,7.037 35.1839,6.8369 h 0.2001 c 16.4869,-0.2021 32.7719,-15.884 32.7719,-41.4159 0,-29.5552 -16.285,-41.216 -32.7719,-41.216 -6.8352,0 -13.068,3.0149 -17.892,8.0419 l -0.402,-43.8291 v -4.623 c 0,-0.6879 -0.282,-0.9989 -0.6531,-0.9989 z m 10.7051,118.6121 c -4.826,-0.6021 -8.0422,-7.8412 -9.2472,-18.2951 l -0.2018,-20.3069 v -0.4011 c 1.809,-19.502 8.4438,-34.5809 16.484,-33.7759 7.6408,1.0049 10.6569,17.0889 8.8478,36.792 -1.7788,19.167 -8.4118,36.004 -15.5098,36.002 -0.1241,0 -0.2491,-0.01 -0.373,-0.015 z"
     style="fill:url(#grad16)"
     id="path80" />
  <defs
     id="defs88">
    <linearGradient
       id="grad17">
      <stop
         offset="0%"
         stop-color="#0071bc"
         stop-opacity="1.0000"
         id="stop82" />
      <stop
         offset="100%"
         stop-color="#29dbe2"
         stop-opacity="1.0000"
         id="stop84" />
    </linearGradient>
    <linearGradient
       xlink:href="#grad17"
       id="grad18"
       x1="0"
       y1="0"
       x2="0"
       y2="1"
       gradientTransform="rotate(144,0.5,0.5)"
       gradientUnits="objectBoundingBox" />
  </defs>
  <path
     d="m 1040.5121,1059.1831 h 43.6289 v -1.609 c -1.8111,0 -8.4461,-4.0221 -8.4461,-7.037 v -50.0601 c 7.2391,-9.25 23.7251,-18.699 23.7251,3.2162 v 46.8439 c 0,3.0149 -6.4341,7.037 -8.043,7.037 v 1.609 h 43.6289 v -1.609 c -1.8108,0 -8.445,-4.0221 -8.445,-7.037 v -46.8439 c 0,-33.1742 -23.5219,-36.1891 -50.866,-9.851 v -39.0041 -17.4909 c 0,-0.688 -0.2818,-0.9992 -0.652,-0.9992 -0.1718,0 -0.362,0.0671 -0.553,0.1941 -8.244,5.4281 -20.507,8.646 -31.5658,9.4499 -1.004,0.2001 -0.803,1.0051 0,1.6081 1.006,0.8039 5.631,2.8151 5.631,7.238 v 95.699 c 0,3.0149 -6.434,7.037 -8.043,7.037 z"
     style="fill:url(#grad18)"
     id="path90" />
  <defs
     id="defs98">
    <linearGradient
       id="grad19">
      <stop
         offset="0%"
         stop-color="#0071bc"
         stop-opacity="1.0000"
         id="stop92" />
      <stop
         offset="100%"
         stop-color="#29dbe2"
         stop-opacity="1.0000"
         id="stop94" />
    </linearGradient>
    <linearGradient
       xlink:href="#grad19"
       id="grad20"
       x1="0"
       y1="0"
       x2="0"
       y2="1"
       gradientTransform="rotate(150,0.5,0.5)"
       gradientUnits="objectBoundingBox" />
  </defs>
  <path
     d="m 1140.6349,1000.2752 c 0,5.2268 2.814,12.0628 10.8561,13.4699 6.8349,1.2059 15.48,-4.0201 14.0741,-13.0691 -6.8372,-4.4218 -3.4181,-15.48 2.6118,-15.48 4.824,0 7.842,3.4191 7.842,9.6511 v 19.7031 c -59.5108,5.2268 -44.2318,67.1499 1.6081,35.1839 2.412,5.0261 8.2421,9.449 15.48,9.449 8.6471,0 20.71,-3.8211 21.915,-11.662 0,-0.6021 -0.4011,-0.8031 -0.8031,-0.8031 -0.4019,0 -0.805,0.201 -1.006,0.8031 -0.8048,2.815 -3.619,4.022 -6.031,3.8211 -3.217,-0.402 -3.8208,-3.0161 -3.8208,-6.8372 l -0.2001,-33.1719 c 0,-22.2281 -17.496,-31.854 -33.9781,-31.8529 -14.6758,0 -28.548,7.632 -28.548,20.795 z m 35.384,17.8928 0.2002,25.5342 c -2.666,0.836 -5.0191,1.209 -7.0691,1.209 -16.194,0 -13.297,-23.3521 6.8689,-26.7432 z"
     style="fill:url(#grad20)"
     id="path100" />
  <path
     d="m 542.5216,1085.0469 h 24.711 v 5.798 h -17.424 v 6.8301 h 16.253 v 5.8399 h -16.253 v 11.5592 h -7.287 z"
     style="fill:#f7941d;fill-rule:evenodd"
     id="path102" />
  <path
     d="m 595.0648,1104.0459 c 0,3.4262 1.9012,6.368 5.546,6.368 3.7511,0 5.4672,-2.8959 5.4672,-6.2558 0,-3.3261 -1.654,-6.453 -5.5191,-6.453 -3.7791,0 -5.4941,2.9449 -5.4941,6.3408 z m 18.1772,0 c 0,6.7799 -4.6871,11.6299 -12.8662,11.6299 -8.2049,0 -12.3998,-5.517 -12.3998,-11.6251 0,-6.0418 4.3429,-11.5988 12.683,-11.5988 8.585,0 12.583,6.1279 12.583,11.594 z"
     style="fill:#f7941d;fill-rule:evenodd"
     id="path104" />
  <path
     d="m 658.1113,1108.6621 c 0,2.1271 -0.038,4.2851 0.005,6.412 h -6.8 c -0.0862,-0.597 -0.0961,-1.6039 -0.1341,-2.5739 -1.1029,1.73 -2.7791,3.1711 -7.4041,3.1711 -4.5989,0 -8.208,-2.6881 -8.208,-9.1701 v -13.456 h 6.9662 v 12.306 c 0,2.9279 1.07,4.9031 3.9648,4.9031 3.382,0 4.644,-1.9871 4.644,-7.0271 v -10.182 h 6.9661 z"
     style="fill:#f7941d;fill-rule:evenodd"
     id="path106" />
  <path
     d="m 681.8716,1098.6045 c 0,-1.8658 0,-3.9779 -0.0431,-5.5599 h 6.806 c 0.085,0.6231 0.165,1.9559 0.203,2.8449 1.008,-1.5228 3.02,-3.4419 7.3122,-3.4419 5.423,0 8.6358,3.3599 8.6358,9.0389 v 13.5881 h -7.041 v -12.4769 c 0,-2.5212 -0.9768,-4.737 -4.108,-4.737 -3.2488,0 -4.7619,2.253 -4.7619,6.224 v 10.9899 h -7.003 z"
     style="fill:#f7941d;fill-rule:evenodd"
     id="path108" />
  <path
     d="m 734.4438,1104.0938 c 0,3.475 2.0049,6.133 5.5749,6.133 3.6102,0 5.4561,-2.3729 5.4561,-6.1639 0,-3.7851 -1.4899,-6.2079 -5.43,-6.2079 -3.7789,0 -5.601,2.9908 -5.601,6.2388 z m 17.8639,-20.7629 v 25.5461 c 0,2.052 0,4.1459 0.0431,6.1968 h -6.876 c -0.091,-0.6528 -0.1329,-1.6889 -0.1709,-2.545 -1.211,1.6932 -2.7632,3.142 -7.3321,3.142 -6.122,0 -10.692,-4.5448 -10.692,-11.422 0,-7.4318 5.8929,-11.8009 11.344,-11.8009 4.299,0 6.0471,1.4579 6.6801,2.2709 v -11.3879 z"
     style="fill:#f7941d;fill-rule:evenodd"
     id="path110" />
  <path
     d="m 791.2294,1105.4961 c -0.5048,-0.038 -2.0239,-0.038 -4.4918,-0.038 -3.541,0 -4.934,0.932 -4.934,2.6691 0,1.4309 1.158,2.5931 3.6848,2.5931 3.818,0 5.741,-1.7492 5.741,-4.8832 z m 6.8111,3.4041 c 0,2.8641 0.127,5.6999 0.1749,6.1739 h -6.5809 c -0.1701,-0.525 -0.218,-1.8698 -0.256,-2.4869 -1.1829,1.9041 -3.7199,3.0841 -7.8619,3.0841 -6.027,0 -8.4591,-3.6711 -8.4591,-7.192 0,-5.7841 5.0641,-7.3891 11.5579,-7.3891 h 4.614 v -0.6939 c 0,-1.785 -0.7758,-3.227 -4.009,-3.227 -3.011,0 -3.674,1.1288 -3.9609,2.3899 h -6.9661 c 0.1862,-2.7159 2.105,-7.1121 10.8201,-7.1121 9.5661,0 10.927,4.5051 10.927,8.189 z"
     style="fill:#f7941d;fill-rule:evenodd"
     id="path112" />
  <path
     d="m 819.1875,1093.0449 h 3.9509 v -6.4919 h 7.0042 v 6.4919 h 5.1009 v 5.059 h -5.1009 v 9.2801 c 0,1.8759 0.3928,2.7371 2.5268,2.7371 0.602,0 1.2832,-0.01 1.8842,-0.1392 v 4.7772 c -1.19,0.3408 -2.793,0.491 -4.417,0.491 -5.4241,0 -6.9982,-2.353 -6.9982,-6.6492 v -10.497 h -3.9509 z"
     style="fill:#f7941d;fill-rule:evenodd"
     id="path114" />
  <path
     d="m 857.345,1093.0452 h 6.9661 v 22.0289 h -6.9661 z m 0,-9.7141 h 6.9661 v 5.565 h -6.9661 z"
     style="fill:#f7941d;fill-rule:evenodd"
     id="path116" />
  <path
     d="m 893.8935,1104.0459 c 0,3.4262 1.9012,6.368 5.5462,6.368 3.7508,0 5.4669,-2.8959 5.4669,-6.2558 0,-3.3261 -1.6551,-6.453 -5.5199,-6.453 -3.778,0 -5.4932,2.9449 -5.4932,6.3408 z m 18.1771,0 c 0,6.7799 -4.6871,11.6299 -12.8659,11.6299 -8.2051,0 -12.4001,-5.517 -12.4001,-11.6251 0,-6.0418 4.3429,-11.5988 12.683,-11.5988 8.5859,0 12.583,6.1279 12.583,11.594 z"
     style="fill:#f7941d;fill-rule:evenodd"
     id="path118" />
  <path
     d="m 934.5644,1098.6045 c 0,-1.8658 0,-3.9779 -0.042,-5.5599 h 6.806 c 0.0851,0.6231 0.165,1.9559 0.203,2.8449 1.008,-1.5228 3.0192,-3.4419 7.3111,-3.4419 5.4241,0 8.636,3.3599 8.636,9.0389 v 13.5881 h -7.0409 v -12.4769 c 0,-2.5212 -0.9771,-4.737 -4.1072,-4.737 -3.249,0 -4.7619,2.253 -4.7619,6.224 v 10.9899 h -7.0041 z"
     style="fill:#f7941d;fill-rule:evenodd"
     id="path120" />
  <path
     d="m 625.3539,550.4756 c -0.9579,-8.409 -4.3098,-16.7278 -0.9579,-25.3009 0.912,-0.8649 1.8241,-1.7289 2.736,-2.5929 5.639,-6.1112 13.3691,-4.1111 20.2621,-4.898 3.4719,-0.396 4.8129,-1.0482 5.3388,-4.6981 0.8291,-5.756 0.5411,-11.9149 4.3812,-16.9401 0.9249,-1.211 0.3549,-1.9279 -0.938,-2.35 -0.6772,-0.2199 -1.3521,-0.5008 -1.9601,-0.8668 -3.0819,-1.8632 -4.627,-4.5442 -3.655,-8.1332 0.7931,-2.9279 3.014,-4.5918 6.008,-4.3438 3.928,0.3249 6.5041,2.996 6.4001,6.7059 -0.1061,3.786 1.1298,3.9779 4.227,3.4821 4.945,-0.7891 9.5819,1.1909 14.1168,2.691 4.7931,1.5848 7.3882,0.8858 9.3781,-4.231 2.0931,-5.383 4.553,-10.9202 10.3451,-14.1631 -1.406,-1.188 -2.573,-1.9919 -3.5141,-3.005 -2.5141,-2.7059 -2.939,-5.7481 -0.6721,-8.757 1.9601,-2.6031 4.6752,-3.424 7.5872,-1.7011 3.041,1.8 4.9538,4.6752 3.3908,8.1031 -1.3779,3.0229 -0.8008,3.7321 2.2362,4.415 5.5358,1.2421 9.8399,5.021 14.438,8.075 2.655,1.762 4.07,1.4009 6.2059,-0.9759 4.7129,-5.243 8.663,-11.4971 16.0591,-13.6562 -4.115,-6.0438 -4.405,-9.6619 -0.9462,-12.3659 2.829,-2.2119 5.722,-1.9409 8.195,0.5811 2.9551,3.0118 2.2771,6.8029 -2.0679,11.9599 7.583,1.304 11.0169,7.6241 15.3641,12.6701 2.603,3.024 4.2939,3.0549 7.4219,0.716 4.9439,-3.6961 9.6959,-8.1641 16.6669,-7.8401 -2.9259,-6.313 -2.4579,-10.1049 1.472,-12.3069 2.9262,-1.6401 5.5562,-1.1001 7.6272,1.5149 2.797,3.53 1.6659,7.1971 -3.7811,11.9579 6.3119,3.191 8.5921,9.4822 11.376,15.1591 2.0381,4.1559 4.178,4.8399 8.3491,3.477 5.9279,-1.938 12.043,-3.7511 18.3688,-1.3541 1.1852,0.7682 2.3692,1.5361 3.553,2.3051 4.2131,5.3399 4.8841,11.8061 5.5902,18.197 0.4138,3.7489 2.118,5.1741 5.9068,5.2481 5.8241,0.1148 11.84,-1.025 17.3452,2.1929 1.656,0.9669 1.999,-0.7311 2.3978,-1.9151 1.48,-4.3889 4.415,-6.5248 9.0511,-5.2809 3.0149,0.809 4.3429,3.2221 3.8599,6.2209 -0.7469,4.6491 -3.6649,6.7331 -8.3798,6.266 -0.3121,-0.0318 -0.6471,0.1661 -1.3391,0.36 2.399,6.1262 1.1291,12.3412 -0.2131,18.3662 -1.012,4.5368 0.6222,5.9009 4.625,6.9188 6.0021,1.525 12.433,2.317 17.238,7.6541 2.5971,-4.1859 5.025,-9.0051 11.0571,-5.927 2.859,1.4599 4.121,4.1471 2.789,7.2621 -2.179,5.0919 -6.3181,5.0908 -11.33,3.4019 1.5859,7.4469 -2.0699,13.39 -4.7469,19.4899 -1.6212,3.6941 -1.1061,5.6942 2.4528,7.7162 5.22,2.9659 11.141,5.286 13.824,12.168 1.995,-2.8361 4.0291,-5.004 7.2711,-5.201 1.69,-0.1021 3.2599,0.3478 4.4711,1.4808 2.573,2.4072 2.9659,5.2721 1.0568,8.2241 -2.2539,3.4821 -5.8998,3.644 -11.7528,0.4811 -0.9022,7.069 -5.663,11.8698 -9.835,16.9279 -1.988,2.41 -1.9432,3.748 -0.0811,6.2841 4.3869,5.9729 10.0871,11.3888 9.9969,20.187 4.667,-2.8341 9.0621,-4.2112 12.3231,1.002 1.9349,3.0909 0.985,6.1379 -2.0381,7.867 -4.9958,2.8568 -8.43,0.178 -11.259,-4.644 -2.603,5.5709 -7.3958,7.7468 -12.0648,9.9099 -3.458,1.6019 -4.1522,3.3109 -2.7561,7.0651 2.264,6.0888 6.2779,11.9049 4.2239,19.5358 3.509,-0.4779 6.9222,-1.4839 9.6231,1.311 1.1579,1.1971 2.101,2.5101 2.222,4.176 0.2231,3.1071 -1.415,5.0942 -4.212,6.118 -3.806,1.393 -6.796,-0.5808 -9.8821,-6.6588 -4.8478,4.7438 -11.2538,5.705 -17.3659,7.3148 -3.1391,0.8271 -4.3841,2.086 -3.7531,5.637 1.086,6.11 2.736,12.302 0.5301,18.5541 -0.4649,1.319 0.0649,2.0149 1.5299,1.9701 0.8872,-0.0272 1.8292,-0.1052 2.656,0.1409 3.242,0.9649 5.2291,3.071 5.2821,6.5829 0.0431,2.846 -1.3379,4.8631 -4.136,5.5202 -3.2769,0.7699 -6.662,0.036 -7.6541,-3.257 -1.44,-4.7841 -3.716,-4.1871 -7.335,-2.7511 -4.047,1.605 -8.505,0.8139 -12.7819,0.8859 -3.1329,0.053 -4.2571,1.324 -4.654,4.4492 -0.7579,5.9619 -0.199,12.2488 -3.7,17.6619 -1.0769,1.665 0.1491,2.122 1.47,2.5619 4.1879,1.393 6.1529,4.3512 5.256,8.6701 -0.7001,3.3621 -3.3851,4.5609 -6.5619,4.121 -4.2681,-0.5911 -6.0982,-3.4461 -5.9102,-7.5691 0.083,-1.8278 -0.1619,-2.8108 -2.2808,-2.2728 -5.8572,1.487 -11.3621,-0.633 -16.8851,-1.923 -3.2261,-0.7532 -4.9281,0.007 -6.321,2.9908 -2.628,5.6251 -4.6451,11.6892 -10.2039,15.6331 1.482,1.2611 2.8848,2.1259 3.843,3.3409 2.084,2.6441 2.3989,5.6041 0.4019,8.4441 -1.5809,2.2499 -3.7811,3.282 -6.5489,2.1821 -3.2541,-1.292 -5.157,-3.937 -4.242,-7.1671 1.1239,-3.979 0.0788,-5.0321 -3.814,-5.686 -4.434,-0.7441 -8.0351,-3.852 -11.816,-6.194 -2.9871,-1.8499 -4.744,-1.6129 -7.158,1.0749 -4.466,4.979 -7.738,11.4721 -15.855,13.051 3.5169,4.197 6.6118,8.3412 1.4558,12.6221 -2.6438,2.1949 -5.7359,2.2241 -8.1059,-0.6551 -3.526,-4.282 -1.933,-7.954 2.459,-11.3958 -7.4829,-1.9511 -11.3159,-7.5972 -15.6571,-12.473 -2.3488,-2.6391 -3.6749,-3.0822 -6.8369,-0.959 -5.976,4.0099 -11.3281,9.7109 -19.6121,8.96 3.0291,6.7819 2.484,10.5809 -1.739,12.5518 -3.3818,1.5801 -6.12,0.269 -7.7638,-2.6739 -2.8851,-5.165 0.7758,-7.8661 4.8699,-10.656 -6.605,-3.776 -8.8521,-10.506 -11.85,-16.668 -1.347,-2.77 -2.7289,-3.441 -5.83,-2.4959 -5.9349,1.8108 -11.711,4.659 -18.2239,3.9149 -1.7422,-0.1981 -2.6521,0.4629 -2.511,2.448 0.3348,4.6979 -1.862,7.6451 -6.595,8.038 -3.2871,0.271 -5.5812,-1.6691 -6.0322,-4.9071 -0.6678,-4.7939 2.1932,-7.2289 6.4772,-8.3988 0.1579,-0.0431 0.2809,-0.2111 0.8178,-0.6352 -4.9598,-5.245 -5.2158,-12.2 -6.0199,-18.7798 -0.5369,-4.4051 -2.3381,-5.025 -6.145,-4.9071 -6.592,0.2041 -13.2979,0.423 -19.2359,-3.4271 -1.821,6.4922 -4.8872,9.5171 -8.9742,8.7772 -3.56,-0.6451 -5.1789,-3.0152 -4.955,-6.542 0.2651,-4.197 3.5861,-6.3471 10.0851,-6.2811 -3.255,-6.686 -1.2889,-13.3041 -0.2041,-19.8881 0.5871,-3.568 -0.4399,-5.0899 -4.0989,-5.8519 -6.3949,-1.3291 -13.3381,-1.5729 -17.964,-7.2691 -1.83,0.9502 -0.9521,2.7071 -1.637,3.8922 -1.6999,2.941 -4.117,4.5828 -7.5089,3.89 -3.0861,-0.631 -5.2291,-2.5801 -5.0851,-5.972 0.146,-3.4441 2.291,-6.4262 5.4969,-6.2331 5.421,0.328 5.3042,-2.0801 5.5542,-6.3301 0.2549,-4.3259 2.0228,-8.748 3.932,-12.7428 2.0429,-4.2761 0.669,-6.3221 -2.967,-8.549 -4.8232,-2.9552 -10.1761,-5.5562 -12.3832,-11.924 -1.118,1.279 -1.8799,2.4078 -2.8828,3.248 -2.7941,2.3349 -5.957,2.6648 -8.8861,0.519 -2.594,-1.9012 -3.304,-4.7512 -1.6809,-7.6402 1.8638,-3.318 5.273,-4.2999 8.3409,-2.782 3.498,1.73 4.212,0.7042 5.2659,-2.4879 1.7782,-5.3861 6.0381,-9.258 9.758,-13.3161 2.2961,-2.5038 2.4752,-4.062 0.258,-6.7178 -4.2968,-5.1491 -9.923,-9.4762 -10.997,-16.772 -6.787,3.2099 -9.9868,2.9749 -12.3869,-0.8062 -2.0191,-3.181 -1.0689,-5.9819 1.66,-8.009 4.9099,-3.6468 8.174,-0.3419 11.209,3.3321 4.3291,-8.6011 12.528,-12.2 19.9789,-16.7051 l -0.0139,-0.006 c 2.617,2.215 2.1949,4.2101 -0.4289,6.058 -1.756,1.2362 -3.6031,2.3692 -5.2222,3.7652 -1.421,1.2249 -3.7429,2.3939 -2.8939,4.6429 0.7401,1.959 3.0929,1.334 4.82,1.438 6.2501,0.3779 12.507,0.6381 18.752,1.067 2.4001,0.1649 5.984,-0.0641 5.5511,3.363 -0.4342,3.4189 -3.9362,2.0441 -6.2691,1.9471 -2.1809,-0.091 -4.3931,-0.9921 -7.1399,0.413 3.3509,2.1708 6.6569,2.194 9.6619,3.121 1.37,0.4229 3.032,0.837 2.8281,2.6659 -0.2202,1.967 -1.906,2.543 -3.6082,2.4191 -1.7719,-0.1301 -3.528,-0.5692 -5.273,-0.9501 -5.2449,-1.1441 -10.4729,-2.363 -15.7249,-3.4699 -1.6829,-0.3552 -3.7471,-1.298 -4.917,0.6018 -1.1049,1.794 0.4771,3.399 1.3791,4.8662 0.8339,1.3589 1.9088,2.5929 3.003,3.765 3.5328,3.7839 2.5438,7.8409 0.591,11.7978 -0.8541,1.7311 -2.423,3.0951 -3.5351,4.716 -1.0941,1.595 -2.7521,3.346 -1.631,5.33 1.3051,2.3102 3.53,0.8311 5.3291,0.4441 6.6439,-1.428 13.2509,-3.037 19.9109,-4.3849 1.7121,-0.3461 3.9021,-0.2432 4.212,2.1589 0.282,2.1759 -1.787,2.3451 -3.2599,2.844 -2.912,0.9859 -6.175,1.0009 -10.0142,3.5059 3.9861,0 6.6381,-0.1349 9.267,0.0451 1.9131,0.1321 4.985,-1.0891 5.078,2.1781 0.0791,2.776 -2.8848,2.937 -4.8909,3.1269 -6.406,0.608 -12.841,0.8989 -19.2589,1.387 -1.6982,0.129 -4.1011,-0.5879 -4.752,1.4831 -0.6902,2.192 1.5228,3.386 2.992,4.64 0.8138,0.6948 1.6778,1.3859 2.6288,1.853 5.2691,2.5909 5.8451,6.7218 3.998,11.7218 -0.4958,1.342 -0.966,2.6992 -1.3408,4.0791 -0.559,2.0551 -1.6701,4.5479 0.0848,6.099 2.1152,1.87 3.926,-0.5921 5.5942,-1.6639 5.5689,-3.5802 10.993,-7.384 16.5549,-10.9752 1.4879,-0.9609 3.5121,-1.8439 4.8169,0.0791 1.4011,2.0639 -0.5508,3.2199 -1.9259,4.307 -2.5101,1.9851 -5.616,3.285 -7.3199,6.2719 3.2159,-0.8388 6.1319,-2.1189 9.07,-3.348 1.4749,-0.618 3.212,-1.5698 4.3158,0.2792 1.2192,2.0418 -0.3538,3.3718 -1.9029,4.3549 -1.349,0.8569 -2.844,1.4961 -4.3061,2.162 -5.3748,2.4471 -10.772,4.848 -16.1399,7.3091 -1.1149,0.5108 -2.5271,0.9808 -2.596,2.4389 -0.0859,1.798 1.548,2.2499 2.8329,2.77 1.4871,0.601 3.0252,1.215 4.5961,1.44 3.6131,0.5179 6.1881,2.202 8.1179,5.391 1.961,3.24 0.216,6.2699 0.1842,9.394 -0.0212,2.0939 -0.824,4.8339 1.3028,5.9479 2.4072,1.2592 3.6862,-1.5128 5.1361,-2.8868 4.934,-4.6791 9.6911,-9.5451 14.6251,-14.2231 1.3269,-1.258 3.2148,-2.1549 4.7208,-0.3189 1.3471,1.643 -0.066,3.0129 -1.148,4.1879 -2.1898,2.38 -4.451,4.695 -6.6818,7.037 3.4438,-0.2891 5.491,-2.3581 7.867,-3.89 1.58,-1.019 3.3678,-3.0461 5.1499,-1.0341 2.0489,2.314 -0.2199,3.9992 -1.8691,5.2291 -4.5899,3.4231 -9.4278,6.518 -13.9589,10.0151 -2.1161,1.6328 -6.302,2.7249 -5.302,5.7849 0.887,2.7151 4.932,2.096 7.7451,2.2329 7.6369,0.373 11.0279,3.2692 12.3988,10.5642 0.5221,2.7748 0.6021,6.8709 3.31,7.3729 3.236,0.6001 3.5892,-3.7361 4.8801,-6.0721 2.7669,-5.0108 5.1579,-10.2288 7.8809,-15.266 0.989,-1.8278 2.3732,-4.254 4.934,-2.772 2.4021,1.3912 0.5921,3.4812 -0.144,5.1922 -1.1529,2.681 -2.9988,5.101 -2.9608,8.333 2.363,-2.2462 4.216,-4.807 6.169,-7.289 1.0809,-1.3742 2.2788,-3.2981 4.3249,-1.7702 1.834,1.368 0.949,3.2612 -0.0329,4.82 -1.0471,1.662 -2.2462,3.2312 -3.409,4.8181 -3.1751,4.331 -6.3952,8.6289 -9.5301,12.988 -0.8169,1.1359 -1.8141,2.4741 -0.7299,3.9039 0.8538,1.1251 2.2839,0.8552 3.5119,0.7361 1.0621,-0.1031 2.1121,-0.371 3.1541,-0.621 10.866,-2.6051 11.9109,-2.1501 17.619,6.9511 1.0749,1.7138 1.8828,4.502 4.441,3.9889 2.215,-0.4439 2.02,-3.0929 2.378,-4.9739 1.1379,-5.976 2.151,-11.977 3.375,-17.934 0.4549,-2.213 0.932,-5.358 3.8579,-4.9292 3.5079,0.5151 1.732,3.6701 1.5769,5.7541 -0.1749,2.3431 -1.4388,4.6301 -0.4779,7.431 2.3111,-2.3199 2.4999,-5.1171 3.5841,-7.4971 0.7688,-1.69 1.1659,-4.356 3.8608,-3.338 2.3292,0.879 1.9301,3.2601 1.2952,5.1471 -1.6532,4.9181 -3.644,9.7271 -5.1761,14.6801 -0.8989,2.9069 -4.428,6.419 -1.65,8.7429 2.9009,2.4281 6.048,-1.3859 9.0589,-2.7221 7.35,-3.263 11.198,-4.2648 14.8961,1.646 0.553,0.883 1.478,1.5571 2.3051,2.236 1.224,1.0072 2.484,2.5801 4.155,1.9621 1.899,-0.7021 1.2359,-2.766 1.207,-4.2831 -0.0422,-2.139 -0.3821,-4.2698 -0.5581,-6.408 -0.4249,-5.1619 -0.925,-10.3218 -1.1821,-15.493 -0.0799,-1.6158 0.6112,-3.449 2.564,-3.5689 2.0891,-0.1281 2.516,1.6991 2.6762,3.3509 0.3019,3.1592 0.4328,6.3411 1.61,9.5652 1.9058,-1.7212 1.109,-3.829 1.431,-5.6611 0.4629,-2.6421 -0.6302,-7.143 2.933,-6.98 4.157,0.1911 2.5789,4.7551 2.5438,7.5271 -0.053,4.0998 -0.97,8.1998 -0.889,12.2879 0.0641,3.2341 -2.9128,8.0011 0.5021,9.3521 3.583,1.417 6.0701,-3.2902 8.5439,-6.0231 4.333,-4.784 6.7691,-5.07 12.4662,-1.9661 2.4579,1.3391 5.536,3.8061 7.846,1.9641 2.353,-1.8759 -0.3161,-4.922 -1.1662,-7.296 -1.8689,-5.2189 -4.1148,-10.3031 -6.0948,-15.4849 -0.754,-1.9751 -1.8691,-4.5731 0.6829,-5.714 2.933,-1.3122 3.223,1.8028 4.1601,3.5518 1.0579,1.974 1.205,4.437 3.4019,6.283 1.063,-2.778 -0.229,-5.0769 -0.451,-7.4359 -0.1811,-1.9329 -1.6571,-4.7769 1.567,-5.2991 2.7629,-0.447 3.28,2.3131 3.767,4.364 1.159,4.873 2.0341,9.8161 3.2711,14.667 0.798,3.1351 -0.1031,8.2641 3.4348,8.7191 3.376,0.434 4.422,-4.487 5.8042,-7.4971 2.1189,-4.6139 5.4819,-6.3218 10.4119,-5.1318 1.7309,0.4189 3.5039,0.8118 5.2719,0.892 1.6982,0.0749 3.9852,0.9 4.9221,-0.9592 0.9351,-1.8519 -1.0531,-3.2389 -2.1249,-4.5519 -3.619,-4.4359 -7.482,-8.674 -11.0282,-13.1649 -1.6268,-2.0622 -5.3348,-4.6741 -2.463,-7.1051 3.0501,-2.5809 4.5241,1.842 6.3981,3.6539 1.3581,1.313 2.1251,3.2981 4.6159,3.8531 -0.0408,-2.664 -1.7968,-4.3259 -2.7859,-6.3079 -1.0471,-2.0991 -3.948,-4.7291 -1.0811,-6.495 3.094,-1.9061 4.462,1.8209 5.783,3.9529 3.0172,4.8659 5.7311,9.9201 8.7542,14.7829 1.044,1.679 1.5908,4.671 4.2968,3.994 2.0511,-0.5139 2.0942,-3.1249 2.4772,-5.0178 2.224,-11.0002 2.211,-10.9772 13.3188,-13.129 1.853,-0.3591 4.572,0.0179 5.0981,-2.1742 0.6239,-2.5999 -2.3059,-3.266 -3.9319,-4.4399 -5.078,-3.6691 -10.2991,-7.1379 -15.4012,-10.773 -1.7229,-1.2291 -4.0558,-2.7981 -2.52,-5.1509 1.764,-2.7071 3.7131,-0.3101 5.44,0.7209 2.194,1.311 3.9401,3.513 7.4412,3.85 -1.283,-3.1731 -3.6791,-4.551 -5.3442,-6.5109 -1.184,-1.3921 -3.7459,-2.7581 -1.9159,-4.828 1.9959,-2.2581 3.9441,-0.1312 5.457,1.2779 4.9751,4.6341 9.8351,9.392 14.7671,14.072 1.0049,0.953 1.9309,2.5189 3.5138,2.0339 1.8601,-0.5689 1.8802,-2.539 1.866,-4.0779 -0.0189,-2.128 -0.4949,-4.248 -0.6919,-6.38 -0.5309,-5.7339 1.4681,-8.708 6.9021,-10.3609 1.37,-0.417 2.785,-0.718 4.1068,-1.2532 1.62,-0.6559 3.854,-1.0689 3.9762,-3.1289 0.1329,-2.2459 -2.2482,-2.4959 -3.8072,-3.1609 -6.4188,-2.7391 -12.907,-5.3192 -19.3048,-8.1042 -1.656,-0.7209 -3.2721,-2.054 -2.2071,-4.1928 0.9729,-1.957 2.753,-1.133 4.2511,-0.5791 2.9299,1.0851 5.8329,2.2411 8.7469,3.3679 -1.7019,-3.5839 -4.915,-4.8019 -7.6201,-6.689 -1.1718,-0.8169 -2.5619,-1.762 -1.7878,-3.4489 0.862,-1.8819 2.5988,-1.7101 4.163,-1.036 1.468,0.6329 2.8499,1.485 4.2179,2.3269 5.18,3.193 10.334,6.431 15.5101,9.6302 2.988,1.847 4.3778,0.8328 4.157,-2.5172 -0.093,-1.406 -0.502,-2.8009 -0.864,-4.176 -0.902,-3.4319 -4.5491,-6.3108 -3.7531,-9.7339 0.9031,-3.8829 6.0301,-3.9781 8.727,-6.554 1.0191,-0.9751 2.6439,-1.6721 2.3899,-3.293 -0.3319,-2.1121 -2.3598,-1.8269 -3.8769,-2.0721 -6.8871,-1.1069 -13.7909,-2.1118 -20.6649,-3.2899 -1.9111,-0.3271 -4.3551,-0.917 -3.954,-3.4659 0.4328,-2.7482 2.9358,-2.035 4.816,-1.7552 2.664,0.3951 5.3048,1.1602 7.9909,-0.076 -2.448,-1.345 -4.9771,-2.1489 -7.4571,-3.0849 -1.764,-0.6659 -4.3929,-1.0749 -3.4628,-3.754 0.8019,-2.311 3.1518,-2.0049 5.1089,-1.383 5.286,1.681 10.4941,3.6289 15.834,5.1061 2.7281,0.754 6.285,3.882 8.21,1.093 1.859,-2.6901 -1.4301,-5.9091 -3.111,-8.5552 -4.3659,-6.8729 -4.409,-8.841 -0.0981,-15.3258 1.4431,-2.1711 4.2962,-4.7622 2.6731,-7.0611 -1.709,-2.4211 -4.9249,-0.0689 -7.378,0.5281 -5.561,1.3509 -11.0279,3.09 -16.5819,4.481 -1.997,0.5 -4.7361,1.258 -5.436,-1.605 -0.6551,-2.679 2.147,-2.825 3.8818,-3.4512 2.5821,-0.932 5.2282,-1.686 7.848,-2.5149 -2.844,-0.7401 -5.47,-0.779 -8.0938,-0.7279 -2.014,0.0399 -4.856,1.4499 -5.3631,-1.607 -0.5341,-3.223 2.643,-3.4282 4.824,-3.721 5.311,-0.7172 10.667,-1.1021 15.9959,-1.6991 2.7351,-0.3059 6.7292,0.756 7.5651,-2.4279 0.815,-3.1002 -3.013,-4.373 -5.332,-5.8762 -5.43,-3.5178 -6.4369,-6.3729 -4.1941,-12.564 0.5482,-1.5129 1.2512,-2.9889 1.6101,-4.5448 0.4249,-1.8391 1.934,-4.0371 0.2049,-5.5562 -1.8989,-1.6699 -3.6298,0.464 -5.2169,1.389 -5.5661,3.2431 -11.0341,6.656 -16.5861,9.9241 -1.847,1.0871 -4.2159,2.4999 -5.7549,0.1641 -1.8331,-2.7842 1.251,-3.511 2.863,-4.6431 2.1291,-1.4959 4.699,-2.418 6.9041,-5.292 -3.727,0.108 -6.135,1.633 -8.708,2.592 -1.785,0.6661 -3.996,1.991 -5.112,-0.5939 -1.052,-2.4361 1.165,-3.564 2.9398,-4.3121 5.4411,-2.2921 10.9922,-4.3219 16.4321,-6.6169 2.386,-1.006 6.581,-1.2132 6.4429,-3.8452 -0.167,-3.1779 -4.299,-3.9319 -7.1688,-4.466 -4.1312,-0.769 -6.8131,-3.1249 -8.551,-6.5899 -1.2552,-2.5039 0.2109,-5.2909 -0.0102,-7.945 -0.186,-2.2079 1.1151,-5.271 -1.4159,-6.319 -2.1339,-0.8821 -3.6491,1.7569 -5.144,3.208 -4.2381,4.115 -8.337,8.375 -12.6091,12.4529 -1.5939,1.521 -3.5708,4.049 -5.8419,1.654 -2.0501,-2.1609 0.619,-3.7749 1.8941,-5.343 1.6718,-2.0608 4.2298,-3.462 5.794,-7.6629 -3.4912,2.4329 -5.6021,4.0541 -7.8622,5.4309 -1.6758,1.0221 -3.6779,3.467 -5.472,0.8081 -1.5409,-2.2841 0.705,-4.017 2.4021,-5.252 5.0641,-3.685 10.277,-7.166 15.3629,-10.8221 1.5231,-1.0939 3.9801,-1.9789 3.4101,-4.303 -0.582,-2.376 -3.246,-1.6849 -5.0479,-2.162 -1.2011,-0.318 -2.4682,-0.4198 -3.7131,-0.5318 -7.3449,-0.6621 -8.7089,-1.9491 -10.325,-9.0252 -0.6179,-2.7048 -0.3719,-6.8448 -3.2649,-7.4129 -3.2,-0.6281 -3.8322,3.5839 -5.199,5.904 -2.9072,4.9309 -5.4751,10.061 -8.3282,15.0259 -0.9578,1.6682 -2.3088,3.784 -4.6089,2.5651 -2.5639,-1.357 -0.7659,-3.4019 -0.051,-5.1129 1.0199,-2.4412 3.246,-4.426 3.356,-7.7811 -2.8809,1.279 -3.826,3.5289 -5.3859,5.184 -1.455,1.5441 -2.7212,4.8481 -5.3722,2.6039 -2.344,-1.9848 -0.0578,-4.242 1.311,-6.0508 3.0252,-3.996 6.2411,-7.8491 9.167,-11.914 1.703,-2.365 5.722,-4.6582 4.0881,-7.4611 -1.8819,-3.2309 -5.9649,-0.9541 -8.8211,-0.0649 -5.3558,1.6668 -8.5578,-0.6761 -11.1458,-4.8402 -1.0392,-1.6699 -1.8862,-3.4639 -3.0022,-5.0768 -0.9868,-1.425 -1.8508,-3.6811 -3.7928,-3.3681 -2.5171,0.405 -1.9241,3.0679 -2.234,4.8909 -1.167,6.8751 -2.171,13.7792 -3.4032,20.6421 -0.3189,1.781 -1.3349,3.6661 -3.6159,3.0201 -1.946,-0.5522 -1.7671,-2.486 -1.531,-4.1032 0.4201,-2.8658 1.3209,-5.7109 0.4161,-9.159 -2.1861,2.628 -2.3082,5.4221 -3.357,7.827 -0.7512,1.7232 -1.016,4.4062 -3.693,3.6082 -2.4242,-0.7211 -2.0322,-3.0852 -1.4341,-5.0332 1.628,-5.3019 3.4971,-10.5358 4.9519,-15.8839 0.75,-2.757 3.8452,-6.3451 1.1741,-8.2491 -2.6649,-1.9009 -5.874,1.4301 -8.5309,3.1 -5.1432,3.2332 -8.3982,2.8621 -12.511,-1.819 -2.2121,-2.5149 -4.6091,-6.7788 -7.776,-5.3408 -3.2281,1.465 -1.1951,6.126 -1.0131,9.379 0.2999,5.349 1.0029,10.6759 1.2501,16.026 0.078,1.7118 -0.5312,3.8548 -2.893,3.8038 -2.1671,-0.0479 -2.098,-2.0418 -2.3352,-3.619 -0.4448,-2.967 -0.906,-5.9329 -1.3609,-8.898 -1.4191,2.816 -1.4899,5.4822 -1.8899,8.098 -0.2792,1.8312 -0.2231,4.5091 -2.8961,4.383 -2.6731,-0.127 -2.5161,-2.7179 -2.422,-4.612 0.3331,-6.785 0.8649,-13.5609 1.2529,-20.3448 0.0871,-1.531 0.9661,-3.4682 -0.716,-4.4762 -1.997,-1.1959 -3.2238,0.7832 -4.5918,1.7972 -2.7071,2.0058 -4.337,5.1168 -7.5572,6.707 -5.3878,2.6609 -9.089,-0.809 -13.2559,-2.9642 -1.5319,-0.7928 -3.3619,-2.3349 -4.953,-1.1188 -1.9891,1.5199 -0.432,3.6609 0.1831,5.419 2.2459,6.4168 4.661,12.7749 6.9049,19.192 0.6061,1.7348 0.813,3.8318 -1.296,4.6479 -2.3411,0.9071 -3.016,-1.237 -3.742,-2.838 -1.127,-2.4829 -1.4411,-5.385 -3.687,-7.8409 -0.9879,3.1348 0.0731,5.5128 0.371,7.9568 0.2271,1.8632 1.0299,4.4102 -1.6171,4.9581 -2.541,0.527 -3.1938,-1.9709 -3.5819,-3.8429 -1.2719,-6.1291 -2.3261,-12.3041 -3.5059,-18.453 -0.394,-2.0531 -0.0972,-5.061 -2.3162,-5.58 -2.5869,-0.6041 -3.5569,2.433 -4.8928,4.2298 -0.6342,0.853 -1.1512,1.8301 -1.5401,2.8231 -2.0361,5.184 -6.2371,5.9 -10.9831,5.2611 -2.2938,-0.309 -4.5148,-1.15 -6.8069,-1.4791 -1.5199,-0.2169 -3.463,-0.7509 -4.4659,0.856 -1.0962,1.7569 0.6599,2.9679 1.5718,4.1669 4.3361,5.6951 8.7981,11.2941 13.1272,16.994 1.0999,1.4471 2.0648,3.3361 0.2129,4.779 -2.001,1.5601 -3.1839,-0.313 -4.3821,-1.626 -2.105,-2.3099 -3.4288,-5.351 -6.9619,-7.689 0.6551,4.5482 3.3061,7.1742 4.608,10.3711 0.565,1.3851 1.0041,2.8979 -0.5119,3.8549 -1.4752,0.9312 -2.795,0.0822 -3.7281,-1.114 -0.874,-1.122 -1.6149,-2.363 -2.306,-3.6108 -3.0351,-5.4802 -6.0049,-10.9962 -9.059,-16.4642 -0.6661,-1.1928 -1.2039,-2.8998 -2.9849,-2.6198 -1.6591,0.2619 -2.0131,1.9409 -2.3711,3.2848 -0.5511,2.0651 -0.8269,4.201 -1.3,6.289 -1.1191,4.9371 -4.2049,7.662 -9.2741,8.079 -1.781,0.1471 -3.608,0.066 -5.3368,0.4442 -1.6742,0.3648 -4.055,0.2409 -4.591,2.192 -0.5961,2.166 1.796,2.8219 3.1609,3.8109 5.652,4.0969 11.3981,8.062 17.0419,12.17 1.4542,1.0579 2.9701,2.5571 1.658,4.5031 -1.4358,2.1308 -3.136,0.65 -4.667,-0.2072 -2.7808,-1.5588 -4.9479,-4.252 -8.8438,-5.366 1.4488,3.856 4.246,5.4071 6.179,7.685 1.1829,1.3941 3.6068,2.7731 1.4499,4.841 -1.9381,1.857 -3.689,-0.0119 -5.061,-1.3289 -3.8741,-3.7179 -7.5331,-7.664 -11.463,-11.319 -2.2561,-2.099 -4.4711,-6.5239 -7.3891,-5.0221 -3.0878,1.5902 -1.529,6.1551 -0.915,9.4291 0.5822,3.1111 0.54,5.7379 -2.92,7.077 -0.4719,-0.4739 -0.9428,-0.9479 -1.415,-1.4221 z"
     style="fill:#2aa8e2;fill-rule:evenodd"
     id="path122" />
  <path
     d="m 625.3539,550.4756 c 0.4722,0.4742 0.9431,0.9482 1.415,1.421 -1.1619,4.564 -5.7209,4.3171 -8.7709,6.213 -1.7629,1.095 -4.4929,1.811 -4.1721,4.3072 0.3002,2.3318 3.0742,2.0339 4.866,2.552 6.5262,1.8859 13.1122,3.568 19.6231,5.5038 1.6671,0.496 3.6139,1.5321 2.7139,3.8262 -0.7588,1.9329 -2.6748,1.3569 -4.2389,1.114 -3.066,-0.4751 -5.9619,-2.0752 -9.334,-1.281 2.4991,1.766 5.2019,3.0019 7.835,4.3719 1.5171,0.7889 3.7451,1.4579 2.7581,3.8041 -0.9031,2.143 -2.9761,1.7328 -4.6681,1.0199 -4.4461,-1.8771 -8.748,-4.121 -13.2641,-5.796 -3.409,-1.2651 -7.3959,-5.718 -10.065,-3.1541 -3.121,2.999 1.3102,6.9962 2.7422,10.453 1.1308,2.7281 1.4559,4.8881 -2.1651,5.686 l 0.0139,0.006 c -4.809,-7.0699 -9.883,-14.0199 -10.3008,-23.0468 -7.2632,1.4289 -11.0441,0.1959 -12.092,-4.0541 -0.798,-3.24 0.5618,-5.6149 3.562,-6.9211 3.8409,-1.671 6.9429,0.0581 10.042,5.4902 6.359,-6.8681 14.7129,-9.6381 23.4998,-11.5152 z"
     style="fill:#2aa8e2;fill-rule:evenodd"
     id="path124" />
  <path
     d="m 627.1318,522.5815 c -0.9119,0.864 -1.8241,1.728 -2.736,2.5932 -1.77,0.216 -3.5411,0.621 -5.3039,-0.0312 -3.195,-1.1838 -5.103,-3.494 -4.9431,-6.8808 0.1539,-3.2752 2.3369,-5.2541 5.5329,-5.565 3.4181,-0.3322 5.9361,1.4508 7.0541,4.6159 0.566,1.6019 0.2911,3.5019 0.396,5.2679 z"
     style="fill:#2aa8e2;fill-rule:evenodd"
     id="path126" />
  <path
     d="m 838.3662,493.8082 c -1.1849,-0.7679 -2.3681,-1.5361 -3.553,-2.3049 -1.6741,-5.9201 -0.303,-9.773 4.0609,-10.836 4.055,-0.987 6.552,1.0469 7.5291,4.8178 1.0809,4.174 -2.016,7.2541 -8.037,8.3231 z"
     style="fill:#2aa8e2;fill-rule:evenodd"
     id="path128" />
  <path
     d="m 749.8198,444.7393 c -101.562,0 -184.1879,82.626 -184.1879,184.1882 0,101.562 82.6259,184.1879 184.1879,184.1879 101.5619,0 184.1879,-82.6259 184.1879,-184.1879 0,-101.5622 -82.626,-184.1882 -184.1879,-184.1882 z m 0,370.808 c -25.1929,0 -49.633,-4.934 -72.6409,-14.6648 -22.2231,-9.4011 -42.181,-22.856 -59.319,-39.9951 -17.1391,-17.138 -30.5952,-37.0959 -39.994,-59.3181 -9.7322,-23.008 -14.6662,-47.4489 -14.6662,-72.6418 0,-25.1932 4.934,-49.6332 14.6662,-72.6412 9.3988,-22.223 22.8549,-42.1798 39.994,-59.3189 17.138,-17.1391 37.0959,-30.5941 59.319,-39.994 23.0079,-9.7311 47.448,-14.6659 72.6409,-14.6659 25.1929,0 49.6329,4.9348 72.6409,14.6659 22.223,9.3999 42.1812,22.8549 59.3192,39.994 17.1388,17.1391 30.594,37.0959 39.994,59.3189 9.7308,23.008 14.6659,47.448 14.6659,72.6412 0,25.1929 -4.9351,49.6338 -14.6659,72.6418 -9.4,22.2222 -22.8552,42.1801 -39.994,59.3181 -17.138,17.1391 -37.0962,30.594 -59.3192,39.9951 -23.008,9.7308 -47.448,14.6648 -72.6409,14.6648 z"
     style="fill:#be1e2d;fill-rule:evenodd"
     id="path130" />
  <path
     d="m 995.2383,619.5664 c -2.0719,-31.6358 -9.9131,-60.971 -23.529,-87.973 -0.4649,0.542 -0.9439,1.0772 -1.434,1.603 20.179,40.2611 26.702,84.8872 18.0569,133.6391 -16.687,94.089 -75.738,156.314 -171.7528,186.266 -16.958,5.2889 -35.3861,6.249 -52.6561,10.8201 -10.0191,2.6518 -18.7161,2.753 -28.6441,-0.0791 -11.27,-3.215 -23.3728,-3.7139 -34.928,-6.1701 -152.5198,-32.419 -229.2128,-184.775 -175.8489,-312.4489 -1.097,-0.036 -2.185,-0.1009 -3.2661,-0.1941 -16.6728,38.645 -21.405,81.036 -13.8628,126.985 16.7788,102.2222 103.784,181.681 212.131,196.49 6.781,0.9281 13.4489,2.5971 21.3508,4.1542 -2.7879,2.179 -4.3569,3.3789 -5.8949,4.6119 -9.0471,7.2511 -16.2689,15.7729 -20.4069,26.398 -2.664,6.8411 -1.1551,10.6279 5.7189,14.7591 1.351,-16.2522 10.8331,-27.8442 23.7481,-37.6741 4.3058,-3.278 7.471,-3.034 11.7048,0.125 13.1451,9.801 22.2902,21.7091 23.7121,38.2739 8.1039,-7.634 8.5691,-9.5669 4.3279,-18.521 -5.22,-11.018 -13.5349,-19.6778 -23.764,-26.8418 l 0.2781,-1.6781 c 11.1921,-1.978 22.4079,-3.8461 33.575,-5.9491 122.5499,-23.078 209.0849,-129.0138 201.384,-246.596 z"
     style="fill:#1b75bc;fill-rule:evenodd"
     id="path132" />
  <defs
     id="defs139">
    <linearGradient
       id="grad21">
      <stop
         offset="0%"
         stop-color="#f15a24"
         stop-opacity="1.0000"
         id="stop134" />
      <stop
         offset="100%"
         stop-color="#fbb03b"
         stop-opacity="1.0000"
         id="stop136" />
    </linearGradient>
  </defs>
  <path
     d="m 679.622,864.9421 h -0.0944 c -1.9797,0.002 -3.9724,0.0779 -5.9805,0.21 -15.351,1.001 -18.898,15.145 -29.181,21.8869 10.857,8.1502 25.6918,11.9642 38.4319,10.0732 12.9149,-1.9182 25.2989,-10.0301 25.956,-21.3571 -9.8161,3.1771 -19.696,6.378 -29.577,9.5769 -0.097,-0.29 -0.195,-0.5789 -0.292,-0.868 9.3101,-4.231 18.62,-8.4608 27.9281,-12.6918 -9.0122,-5.2132 -17.966,-6.8301 -27.1911,-6.8301 z"
     style="fill:url(#grad21)"
     id="path141" />
  <defs
     id="defs148">
    <linearGradient
       id="grad22">
      <stop
         offset="0%"
         stop-color="#f15a24"
         stop-opacity="1.0000"
         id="stop143" />
      <stop
         offset="100%"
         stop-color="#fbb03b"
         stop-opacity="1.0000"
         id="stop145" />
    </linearGradient>
  </defs>
  <path
     d="m 792.5509,871.5202 c 8.39,4.0039 16.3052,7.7819 24.2212,11.558 l -0.4141,1.1429 c -8.405,-2.8239 -16.8109,-5.6489 -25.191,-8.466 0.2971,8.5459 7.5209,16.138 18.688,19.6331 15.2549,4.7729 37.0001,0.4768 44.4949,-8.4552 -3.0198,-3.246 -6.211,-6.243 -8.8759,-9.6109 -6.438,-8.138 -18.108,-12.6309 -29.8859,-12.6309 -8.2052,9e-4 -16.4622,2.181 -23.0372,6.829 z"
     style="fill:url(#grad22)"
     id="path150" />
  <defs
     id="defs157">
    <linearGradient
       id="grad23">
      <stop
         offset="0%"
         stop-color="#f15a24"
         stop-opacity="1.0000"
         id="stop152" />
      <stop
         offset="100%"
         stop-color="#fbb03b"
         stop-opacity="1.0000"
         id="stop154" />
    </linearGradient>
  </defs>
  <path
     d="m 591.1179,858.9491 c 11.878,12.3851 26.2502,18.4051 43.8021,16.0251 9.2179,-1.2481 16.393,-5.8711 20.133,-14.4802 -10.1761,1.1092 -19.798,2.1571 -29.4199,3.204 l -0.051,-1.025 c 9.4439,-2.134 18.8869,-4.2679 29.6858,-6.706 -9.303,-7.016 -18.3869,-9.845 -28.0769,-12.0359 -1.9661,-0.445 -3.8089,-0.646 -5.5539,-0.646 -12.5751,0 -19.982,10.4621 -30.5192,15.664 z"
     style="fill:url(#grad23)"
     id="path159" />
  <defs
     id="defs166">
    <linearGradient
       id="grad24">
      <stop
         offset="0%"
         stop-color="#f15a24"
         stop-opacity="1.0000"
         id="stop161" />
      <stop
         offset="100%"
         stop-color="#fbb03b"
         stop-opacity="1.0000"
         id="stop163" />
    </linearGradient>
  </defs>
  <path
     d="m 845.9211,856.3202 c 9.549,2.1569 19.0978,4.3138 28.6469,6.471 -0.0179,0.356 -0.034,0.712 -0.0519,1.0678 -9.8042,-1.0959 -19.6081,-2.1929 -30.0501,-3.3608 4.1491,8.7738 11.268,13.3759 20.3621,14.533 17.5349,2.2328 31.9388,-3.784 43.265,-15.8001 -4.1432,-2.9639 -7.856,-5.9119 -11.88,-8.42 -4.0292,-2.5101 -8.1491,-5.9621 -12.608,-6.586 -2.154,-0.3019 -4.2681,-0.4499 -6.349,-0.4499 -11.433,0 -21.78,4.483 -31.335,12.545 z"
     style="fill:url(#grad24)"
     id="path168" />
  <defs
     id="defs175">
    <linearGradient
       id="grad25">
      <stop
         offset="0%"
         stop-color="#f15a24"
         stop-opacity="1.0000"
         id="stop170" />
      <stop
         offset="100%"
         stop-color="#fbb03b"
         stop-opacity="1.0000"
         id="stop172" />
    </linearGradient>
  </defs>
  <path
     d="m 546.864,822.277 c 9.098,13.79 21.1169,22.4422 38.296,23.169 8.9019,0.377 16.6431,-2.3239 21.822,-9.866 -10.2549,-0.944 -20.075,-1.8448 -29.8951,-2.7468 l 0.091,-1.8102 h 30.8532 c -7.8432,-9.0289 -16.5022,-13.6658 -26.191,-17.17 -2.577,-0.9329 -4.9921,-1.3229 -7.2961,-1.3229 -10.0021,0 -17.89,7.3661 -27.68,9.7469 z"
     style="fill:url(#grad25)"
     id="path177" />
  <defs
     id="defs184">
    <linearGradient
       id="grad26">
      <stop
         offset="0%"
         stop-color="#f15a24"
         stop-opacity="1.0000"
         id="stop179" />
      <stop
         offset="100%"
         stop-color="#fbb03b"
         stop-opacity="1.0000"
         id="stop181" />
    </linearGradient>
  </defs>
  <path
     d="m 920.676,813.1721 c -11.1639,2.9659 -20.6861,8.0751 -29.167,18.157 h 31.039 c 0.019,0.495 0.0369,0.991 0.0559,1.4871 -9.97,0.9198 -19.9398,1.842 -29.994,2.7709 12.8741,18.8739 48.9802,8.6969 59.5591,-13.5831 -9.3581,-1.652 -16.5929,-9.5 -26.4901,-9.5 -1.5919,0 -3.2539,0.2041 -5.0029,0.6681 z"
     style="fill:url(#grad26)"
     id="path186" />
  <defs
     id="defs193">
    <linearGradient
       id="grad27">
      <stop
         offset="0%"
         stop-color="#f15a24"
         stop-opacity="1.0000"
         id="stop188" />
      <stop
         offset="100%"
         stop-color="#fbb03b"
         stop-opacity="1.0000"
         id="stop190" />
    </linearGradient>
  </defs>
  <path
     d="m 954.6861,776.663 c -9.9501,4.9442 -18.0331,11.4072 -23.9102,22.4362 10.1132,-1.618 18.6701,-2.988 27.227,-4.3582 l 0.2552,0.9671 c -8.3761,2.3491 -16.7531,4.699 -25.4192,7.1289 7.1431,6.5032 16.3151,8.2692 26.771,4.5071 13.8101,-4.9711 22.5071,-14.563 27.3881,-28.1741 -4.489,0.231 -8.701,-0.9769 -12.8469,-2.185 -3.8002,-1.1069 -7.5442,-2.2138 -11.395,-2.2138 -2.6241,0 -5.2971,0.5139 -8.07,1.8918 z"
     style="fill:url(#grad27)"
     id="path195" />
  <defs
     id="defs202">
    <linearGradient
       id="grad28">
      <stop
         offset="0%"
         stop-color="#f15a24"
         stop-opacity="1.0000"
         id="stop197" />
      <stop
         offset="100%"
         stop-color="#fbb03b"
         stop-opacity="1.0000"
         id="stop199" />
    </linearGradient>
  </defs>
  <path
     d="m 512.493,779.4631 c 6.0191,14.8629 15.736,25.533 32.362,29.078 8.127,1.732 15.8511,0.404 22.1641,-5.614 -9.153,-2.5849 -17.6882,-4.9949 -26.2221,-7.406 l 0.5969,-0.8119 c 8.6871,1.3689 17.373,2.7369 27.3762,4.3118 -5.171,-9.8289 -12.3021,-15.5058 -20.2861,-20.7349 -3.8319,-2.5101 -7.5589,-3.3831 -11.2499,-3.3831 -8.1712,0 -16.1651,4.2811 -24.7411,4.5601 z"
     style="fill:url(#grad28)"
     id="path204" />
  <defs
     id="defs211">
    <linearGradient
       id="grad29">
      <stop
         offset="0%"
         stop-color="#f15a24"
         stop-opacity="1.0000"
         id="stop206" />
      <stop
         offset="100%"
         stop-color="#fbb03b"
         stop-opacity="1.0000"
         id="stop208" />
    </linearGradient>
  </defs>
  <path
     d="m 979.5891,736.0391 c -8.542,6.2229 -16.17,16.4971 -17.0502,24.8709 7.477,-2.4678 14.6302,-4.8279 21.782,-7.1878 l 0.4451,0.9989 c -6.8979,3.2619 -13.796,6.524 -21.1391,9.997 9.5071,5.3949 18.6361,4.356 27.29,-0.752 11.9571,-7.058 18.0031,-17.6511 20.0491,-30.9861 -4.2259,0.8022 -8.4121,0.4062 -12.5101,0.0102 -2.3579,-0.2282 -4.686,-0.4561 -6.9769,-0.4561 -4.102,0 -8.0839,0.7319 -11.8899,3.505 z"
     style="fill:url(#grad29)"
     id="path213" />
  <defs
     id="defs220">
    <linearGradient
       id="grad30">
      <stop
         offset="0%"
         stop-color="#f15a24"
         stop-opacity="1.0000"
         id="stop215" />
      <stop
         offset="100%"
         stop-color="#fbb03b"
         stop-opacity="1.0000"
         id="stop217" />
    </linearGradient>
  </defs>
  <path
     d="m 500.532,733.0701 c -3.8631,0.3799 -7.727,0.7611 -11.4821,0.2149 2.3871,25.2601 28.5092,42.66 46.4091,31.3262 -7.3349,-3.5912 -14.76,-7.2272 -22.1859,-10.8632 0.1488,-0.2749 0.2979,-0.5499 0.4479,-0.8249 7.5521,2.6391 15.1041,5.2801 22.6559,7.92 l 1.226,-1.3711 c -2.8729,-8.5708 -8.4098,-15.4168 -15.2558,-21.7139 -4.513,-4.1511 -9.4022,-5.177 -14.417,-5.1761 -2.446,0 -4.9221,0.2441 -7.3981,0.4881 z"
     style="fill:url(#grad30)"
     id="path222" />
  <defs
     id="defs229">
    <linearGradient
       id="grad31">
      <stop
         offset="0%"
         stop-color="#f15a24"
         stop-opacity="1.0000"
         id="stop224" />
      <stop
         offset="100%"
         stop-color="#fbb03b"
         stop-opacity="1.0000"
         id="stop226" />
    </linearGradient>
  </defs>
  <path
     d="m 995.9671,692.8902 c -6.897,7.323 -11.522,15.66 -12.536,27.083 7.2428,-3.8511 13.3549,-7.1022 19.4689,-10.3521 0.1891,0.2999 0.3779,0.5981 0.5661,0.8989 -5.6171,4.0572 -11.2351,8.1141 -17.4311,12.5912 9.3019,2.9318 17.1261,1.3629 23.9811,-4.019 10.9979,-8.6372 15.3749,-19.946 14.6209,-33.834 -9.701,3.5898 -20.9829,-0.5321 -28.6699,7.632 z"
     style="fill:url(#grad31)"
     id="path231" />
  <defs
     id="defs238">
    <linearGradient
       id="grad32">
      <stop
         offset="0%"
         stop-color="#f15a24"
         stop-opacity="1.0000"
         id="stop233" />
      <stop
         offset="100%"
         stop-color="#fbb03b"
         stop-opacity="1.0000"
         id="stop235" />
    </linearGradient>
  </defs>
  <path
     d="m 474.68,686.5851 c -0.358,13.2301 4.278,25.2629 16.7369,33.7969 6.548,4.4841 13.8931,5.5451 21.907,2.662 -6.3409,-4.6939 -12.2619,-9.078 -18.184,-13.462 0.2081,-0.2268 0.4161,-0.4539 0.625,-0.682 6.5362,3.6 13.072,7.2011 20.8551,11.4882 -3.822,-21.3922 -13.841,-34.1592 -35.4161,-34.158 -2.0659,0 -4.2409,0.117 -6.5239,0.3549 z"
     style="fill:url(#grad32)"
     id="path240" />
  <defs
     id="defs247">
    <linearGradient
       id="grad33">
      <stop
         offset="0%"
         stop-color="#f15a24"
         stop-opacity="1.0000"
         id="stop242" />
      <stop
         offset="100%"
         stop-color="#fbb03b"
         stop-opacity="1.0000"
         id="stop244" />
    </linearGradient>
  </defs>
  <path
     d="m 1002.864,649.9821 c -4.896,8.14 -7.9611,16.4951 -6.313,27.1009 5.5619,-4.3219 10.256,-7.967 14.9491,-11.6129 0.2718,0.2741 0.5428,0.5479 0.8149,0.822 -4.1859,4.3359 -8.3721,8.6729 -12.9931,13.4589 23.1281,4.237 36.6451,-25.9568 29.016,-41.9649 -7.9268,5.1159 -19.7379,2.656 -25.4739,12.196 z"
     style="fill:url(#grad33)"
     id="path249" />
  <defs
     id="defs256">
    <linearGradient
       id="grad34">
      <stop
         offset="0%"
         stop-color="#f15a24"
         stop-opacity="1.0000"
         id="stop251" />
      <stop
         offset="100%"
         stop-color="#fbb03b"
         stop-opacity="1.0000"
         id="stop253" />
    </linearGradient>
  </defs>
  <path
     d="m 499.5461,679.1591 c -4.612,-4.9101 -9.2642,-9.8611 -13.9162,-14.813 0.254,-0.218 0.5072,-0.4371 0.76,-0.6559 5.4011,4.375 10.8011,8.75 16.6762,13.5079 3.5649,-20.8369 -7.8001,-33.823 -32.6942,-38.7399 -4.7648,24.2248 11.3241,46.5599 29.1742,40.7009 z"
     style="fill:url(#grad34)"
     id="path258" />
  <defs
     id="defs265">
    <linearGradient
       id="grad35">
      <stop
         offset="0%"
         stop-color="#f15a24"
         stop-opacity="1.0000"
         id="stop260" />
      <stop
         offset="100%"
         stop-color="#fbb03b"
         stop-opacity="1.0000"
         id="stop262" />
    </linearGradient>
  </defs>
  <path
     d="m 1001.9059,607.751 c -3.312,8.4421 -4.6148,16.9251 -1.3668,27.0051 4.9189,-5.5919 9.119,-10.3649 13.318,-15.1401 0.2639,0.1491 0.5278,0.2982 0.7909,0.447 -3.3991,5.262 -6.7981,10.5242 -10.2649,15.8902 16.8038,2.677 30.771,-22.4581 19.9829,-43.8432 -7.2139,6.0931 -18.6259,5.87 -22.4601,15.641 z"
     style="fill:url(#grad35)"
     id="path267" />
  <defs
     id="defs274">
    <linearGradient
       id="grad36">
      <stop
         offset="0%"
         stop-color="#f15a24"
         stop-opacity="1.0000"
         id="stop269" />
      <stop
         offset="100%"
         stop-color="#fbb03b"
         stop-opacity="1.0000"
         id="stop271" />
    </linearGradient>
  </defs>
  <path
     d="m 477.7051,627.7642 c 3.998,5.4609 9.527,9.174 17.6678,8.4458 -3.5209,-5.4369 -6.719,-10.3748 -9.917,-15.3139 0.29,-0.1559 0.5811,-0.3129 0.8722,-0.47 3.996,4.504 7.9909,9.0071 12.814,14.442 2.6479,-9.4091 1.7788,-17.17 -0.5751,-25.0591 -3.403,-11.4058 -15.6609,-11.562 -23.7271,-17.7889 -5.2368,12.7619 -5.239,24.677 2.8652,35.7441 z"
     style="fill:url(#grad36)"
     id="path276" />
  <defs
     id="defs283">
    <linearGradient
       id="grad37">
      <stop
         offset="0%"
         stop-color="#f15a24"
         stop-opacity="1.0000"
         id="stop278" />
      <stop
         offset="100%"
         stop-color="#fbb03b"
         stop-opacity="1.0000"
         id="stop280" />
    </linearGradient>
  </defs>
  <path
     d="m 994.0151,567.2881 c -2.2342,8.729 -1.62,17.201 2.8729,26.4751 3.498,-5.4431 6.5679,-10.2221 9.6381,-15.001 0.3229,0.1418 0.646,0.2838 0.9689,0.4258 -2.1501,4.894 -4.301,9.788 -6.645,15.124 16.8741,-0.7059 25.3259,-26.5139 11.776,-44.6199 -5.5029,6.5939 -16.181,8.0991 -18.6109,17.596 z"
     style="fill:url(#grad37)"
     id="path285" />
  <defs
     id="defs292">
    <linearGradient
       id="grad38">
      <stop
         offset="0%"
         stop-color="#f15a24"
         stop-opacity="1.0000"
         id="stop287" />
      <stop
         offset="100%"
         stop-color="#fbb03b"
         stop-opacity="1.0000"
         id="stop289" />
    </linearGradient>
  </defs>
  <path
     d="m 483.6091,584.1911 c 2.9889,5.8091 7.71,9.9899 15.304,10.438 -2.552,-5.847 -4.915,-11.2611 -7.278,-16.675 0.2909,-0.1199 0.58,-0.2401 0.87,-0.36 3.113,5.0439 6.2269,10.0879 10.1829,16.4959 4.106,-9.125 4.6341,-16.9118 3.308,-25.09 -1.7419,-10.7569 -12.9061,-12.4359 -19.3521,-19.3629 -7.0929,11.4959 -9.0768,22.8149 -3.0348,34.554 z"
     style="fill:url(#grad38)"
     id="path294" />
  <defs
     id="defs301">
    <linearGradient
       id="grad39">
      <stop
         offset="0%"
         stop-color="#f15a24"
         stop-opacity="1.0000"
         id="stop296" />
      <stop
         offset="100%"
         stop-color="#fbb03b"
         stop-opacity="1.0000"
         id="stop298" />
    </linearGradient>
  </defs>
  <path
     d="m 979.7271,530.9072 c -0.415,8.4659 1.027,16.3499 7.2799,24.6019 2.7661,-7.348 5.0471,-13.4051 7.3279,-19.463 0.246,0.059 0.4921,0.1199 0.7381,0.1789 -1.504,6.4732 -3.0081,12.9452 -4.5261,19.483 18.2781,-4.5728 17.8192,-32.951 3.6732,-44.06 -4.0952,6.9231 -14.0301,9.7611 -14.493,19.2592 z"
     style="fill:url(#grad39)"
     id="path303" />
  <defs
     id="defs310">
    <linearGradient
       id="grad40">
      <stop
         offset="0%"
         stop-color="#f15a24"
         stop-opacity="1.0000"
         id="stop305" />
      <stop
         offset="100%"
         stop-color="#fbb03b"
         stop-opacity="1.0000"
         id="stop307" />
    </linearGradient>
  </defs>
  <path
     d="m 692.3201,826.688 c 1.605,7.0741 -2.9191,14.9822 3.5819,21.471 5.9799,5.9701 13.2321,8.3602 22.7911,7.3811 -2.5101,-3.751 -4.572,-6.832 -6.6331,-9.913 l 1.0749,-0.7611 c 2.283,2.6271 4.5672,5.254 7.579,8.7191 3.6981,-11.9529 -9.4419,-27.396 -23.9448,-27.3949 -1.474,0 -2.9631,0.1599 -4.449,0.4978 z"
     style="fill:url(#grad40)"
     id="path312" />
  <defs
     id="defs319">
    <linearGradient
       id="grad41">
      <stop
         offset="0%"
         stop-color="#f15a24"
         stop-opacity="1.0000"
         id="stop314" />
      <stop
         offset="100%"
         stop-color="#fbb03b"
         stop-opacity="1.0000"
         id="stop316" />
    </linearGradient>
  </defs>
  <path
     d="m 803.7903,826.1641 h -0.0411 -0.0411 c -14.938,0 -28.393,13.6069 -24.179,27.279 3.2488,-3.2579 5.961,-5.9789 9.434,-9.4649 -3.0291,4.2089 -5.4011,7.5019 -8.2131,11.406 19.8689,2.147 28.1679,-7.7771 25.6,-29.0772 -0.8564,-0.0938 -1.7099,-0.14 -2.5597,-0.1429 z"
     style="fill:url(#grad41)"
     id="path321" />
  <defs
     id="defs328">
    <linearGradient
       id="grad42">
      <stop
         offset="0%"
         stop-color="#f15a24"
         stop-opacity="1.0000"
         id="stop323" />
      <stop
         offset="100%"
         stop-color="#fbb03b"
         stop-opacity="1.0000"
         id="stop325" />
    </linearGradient>
  </defs>
  <path
     d="m 814.8151,844.936 c 2.7408,-3.632 5.413,-7.1708 8.0838,-10.709 0.2152,0.1522 0.43,0.303 0.646,0.455 -2.0489,4.085 -4.0969,8.17 -6.5228,13.009 8.2659,0.1451 13.894,-2.8868 18.8459,-7.4798 8.2961,-7.6952 2.0809,-16.3732 2.1929,-24.6642 -16.8418,1.171 -29.8738,17.5901 -23.2458,29.389 z"
     style="fill:url(#grad42)"
     id="path330" />
  <defs
     id="defs337">
    <linearGradient
       id="grad43">
      <stop
         offset="0%"
         stop-color="#f15a24"
         stop-opacity="1.0000"
         id="stop332" />
      <stop
         offset="100%"
         stop-color="#fbb03b"
         stop-opacity="1.0000"
         id="stop334" />
    </linearGradient>
  </defs>
  <path
     d="m 661.524,837.5152 c 4.9889,6.73 11.8831,9.9119 21.31,10.529 -2.429,-4.8101 -4.3949,-8.7052 -6.363,-12.6 0.296,-0.163 0.5919,-0.328 0.887,-0.4912 2.5379,3.45 5.076,6.8992 8.079,10.9822 3.1989,-16.374 -7.395,-29.3972 -23.8691,-30.272 0.4921,7.304 -5.5108,14.476 -0.0439,21.852 z"
     style="fill:url(#grad43)"
     id="path339" />
  <defs
     id="defs346">
    <linearGradient
       id="grad44">
      <stop
         offset="0%"
         stop-color="#f15a24"
         stop-opacity="1.0000"
         id="stop341" />
      <stop
         offset="100%"
         stop-color="#fbb03b"
         stop-opacity="1.0000"
         id="stop343" />
    </linearGradient>
  </defs>
  <path
     d="m 631.5609,825.24 c 4.053,5.1322 9.0522,9.0851 17.0371,9.703 -1.5081,-4.7729 -2.8151,-8.9118 -4.121,-13.0518 l 0.7741,-0.2801 c 2.0509,3.7449 4.1029,7.488 6.4259,11.7301 6.207,-14.3711 -3.545,-30.7871 -18.137,-32.006 -6.1939,15.628 -6.5429,18.1259 -1.9791,23.9048 z"
     style="fill:url(#grad44)"
     id="path348" />
  <defs
     id="defs355">
    <linearGradient
       id="grad45">
      <stop
         offset="0%"
         stop-color="#f15a24"
         stop-opacity="1.0000"
         id="stop350" />
      <stop
         offset="100%"
         stop-color="#fbb03b"
         stop-opacity="1.0000"
         id="stop352" />
    </linearGradient>
  </defs>
  <path
     d="m 848.0799,833.2082 c 2.001,-3.7411 3.8721,-7.2411 5.743,-10.741 0.3011,0.1009 0.6021,0.203 0.902,0.305 -1.2138,3.9359 -2.4279,7.8729 -3.6879,11.956 18.0581,-1.5191 23.779,-15.2 14.5511,-33.6291 -15.3442,3.141 -24.3811,19.288 -17.5082,32.1091 z"
     style="fill:url(#grad45)"
     id="path357" />
  <defs
     id="defs364">
    <linearGradient
       id="grad46">
      <stop
         offset="0%"
         stop-color="#f15a24"
         stop-opacity="1.0000"
         id="stop359" />
      <stop
         offset="100%"
         stop-color="#fbb03b"
         stop-opacity="1.0000"
         id="stop361" />
    </linearGradient>
  </defs>
  <path
     d="m 878.854,816.7251 c 1.5091,-4.328 2.942,-8.436 4.375,-12.5451 0.2871,0.065 0.574,0.131 0.8611,0.1951 -0.7092,4.4691 -1.415,8.9379 -2.1642,13.6649 17.835,-5.5108 21.0262,-18.8019 9.085,-35.418 -14.8799,6.34 -20.6348,22.0422 -12.1569,34.1031 z"
     style="fill:url(#grad46)"
     id="path366" />
  <defs
     id="defs373">
    <linearGradient
       id="grad47">
      <stop
         offset="0%"
         stop-color="#f15a24"
         stop-opacity="1.0000"
         id="stop368" />
      <stop
         offset="100%"
         stop-color="#fbb03b"
         stop-opacity="1.0000"
         id="stop370" />
    </linearGradient>
  </defs>
  <path
     d="m 601.578,802.767 c 0.356,7.571 8.456,13.517 16.003,14.665 -0.8141,-4.8288 -1.605,-9.5269 -2.397,-14.2268 0.2339,-0.0581 0.468,-0.1162 0.703,-0.174 1.563,4.403 3.128,8.8049 4.8181,13.5618 8.5118,-12.229 2.1829,-28.677 -14.0982,-34.5878 -1.8558,7.039 -5.3489,13.9819 -5.0289,20.7618 z"
     style="fill:url(#grad47)"
     id="path375" />
  <defs
     id="defs382">
    <linearGradient
       id="grad48">
      <stop
         offset="0%"
         stop-color="#f15a24"
         stop-opacity="1.0000"
         id="stop377" />
      <stop
         offset="100%"
         stop-color="#fbb03b"
         stop-opacity="1.0000"
         id="stop379" />
    </linearGradient>
  </defs>
  <path
     d="m 576.645,779.9501 c -0.5561,7.2521 5.0859,13.068 13.1729,17.4231 V 780.996 c 0.1321,-0.0309 0.265,-0.064 0.3971,-0.0938 0.9981,4.9218 1.9951,9.8459 3.034,14.9808 10.286,-10.1539 6.2991,-27.858 -8.7299,-35.3199 -2.8171,6.5259 -7.3721,12.8171 -7.8741,19.387 z"
     style="fill:url(#grad48)"
     id="path384" />
  <defs
     id="defs391">
    <linearGradient
       id="grad49">
      <stop
         offset="0%"
         stop-color="#f15a24"
         stop-opacity="1.0000"
         id="stop386" />
      <stop
         offset="100%"
         stop-color="#fbb03b"
         stop-opacity="1.0000"
         id="stop388" />
    </linearGradient>
  </defs>
  <path
     d="m 906.5011,795.461 c 0.8589,-4.6029 1.6949,-9.0808 2.5299,-13.5579 0.3059,0.021 0.6109,0.0411 0.9159,0.0621 v 15.1279 c 7.1411,-3.338 10.6912,-8.3891 12.8622,-14.669 3.2749,-9.479 -5.3682,-14.199 -9.0521,-21.4251 -14.1089,8.297 -17.7789,26.43 -7.2559,34.462 z"
     style="fill:url(#grad49)"
     id="path393" />
  <defs
     id="defs400">
    <linearGradient
       id="grad50">
      <stop
         offset="0%"
         stop-color="#f15a24"
         stop-opacity="1.0000"
         id="stop395" />
      <stop
         offset="100%"
         stop-color="#fbb03b"
         stop-opacity="1.0000"
         id="stop397" />
    </linearGradient>
  </defs>
  <path
     d="m 555.464,754.7382 c 0.3781,7.452 3.422,13.5068 10.7481,18.411 0.8748,-5.944 1.624,-11.039 2.374,-16.1351 0.3388,-0.095 0.6789,-0.1871 1.0188,-0.2809 v 15.681 c 11.537,-9.6171 10.2132,-26.4462 -2.2459,-35.0901 -3.791,5.925 -12.329,8.877 -11.895,17.4141 z"
     style="fill:url(#grad50)"
     id="path402" />
  <defs
     id="defs409">
    <linearGradient
       id="grad51">
      <stop
         offset="0%"
         stop-color="#f15a24"
         stop-opacity="1.0000"
         id="stop404" />
      <stop
         offset="100%"
         stop-color="#fbb03b"
         stop-opacity="1.0000"
         id="stop406" />
    </linearGradient>
  </defs>
  <path
     d="m 930.7311,772.51 v -13.2098 c 0.256,0.0139 0.5119,0.0289 0.7668,0.044 0.568,4.373 1.1372,8.746 1.8071,13.8968 12.1889,-10.1018 17.3959,-21.7309 -1.825,-35.7108 -12.041,10.3609 -12.7729,27.1638 -0.7489,34.9798 z"
     style="fill:url(#grad51)"
     id="path411" />
  <defs
     id="defs418">
    <linearGradient
       id="grad52">
      <stop
         offset="0%"
         stop-color="#f15a24"
         stop-opacity="1.0000"
         id="stop413" />
      <stop
         offset="100%"
         stop-color="#fbb03b"
         stop-opacity="1.0000"
         id="stop415" />
    </linearGradient>
  </defs>
  <path
     d="m 539.2079,727.2041 c -2.53,6.6311 1.0482,13.4521 7.3391,19.364 1.421,-4.403 2.5569,-7.927 3.693,-11.4499 0.3121,0.0618 0.6251,0.1238 0.938,0.1848 -0.4181,3.526 -0.834,7.0512 -1.2671,10.7061 11.2672,-3.5909 14.999,-25.2779 1.889,-34.9021 -4.3359,5.311 -10.2968,10.0811 -12.592,16.0971 z"
     style="fill:url(#grad52)"
     id="path420" />
  <defs
     id="defs427">
    <linearGradient
       id="grad53">
      <stop
         offset="0%"
         stop-color="#f15a24"
         stop-opacity="1.0000"
         id="stop422" />
      <stop
         offset="100%"
         stop-color="#fbb03b"
         stop-opacity="1.0000"
         id="stop424" />
    </linearGradient>
  </defs>
  <path
     d="m 949.5991,745.686 c -0.5451,-4.3569 -1.063,-8.498 -1.5812,-12.6388 0.2571,-0.0411 0.5151,-0.0831 0.773,-0.1242 1.3612,4.3302 2.7221,8.6601 4.2591,13.5482 5.813,-5.1642 7.666,-10.9301 7.8329,-17.5482 0.2452,-9.7769 -9.5558,-11.5659 -14.4048,-17.3559 -10.6361,11.2371 -9.074,28.7039 3.121,34.1189 z"
     style="fill:url(#grad53)"
     id="path429" />
  <defs
     id="defs436">
    <linearGradient
       id="grad54">
      <stop
         offset="0%"
         stop-color="#f15a24"
         stop-opacity="1.0000"
         id="stop431" />
      <stop
         offset="100%"
         stop-color="#fbb03b"
         stop-opacity="1.0000"
         id="stop433" />
    </linearGradient>
  </defs>
  <path
     d="m 964.9549,717.9541 c -1.1438,-3.9991 -2.2399,-7.825 -3.3358,-11.6521 0.2639,-0.055 0.5289,-0.11 0.7929,-0.165 1.872,3.761 3.7451,7.522 5.7469,11.543 7.952,-10.391 10.8652,-24.3729 -11.874,-32.3079 -8.2849,12.9541 -4.4408,27.925 8.67,32.582 z"
     style="fill:url(#grad54)"
     id="path438" />
  <defs
     id="defs445">
    <linearGradient
       id="grad55">
      <stop
         offset="0%"
         stop-color="#f15a24"
         stop-opacity="1.0000"
         id="stop440" />
      <stop
         offset="100%"
         stop-color="#fbb03b"
         stop-opacity="1.0000"
         id="stop442" />
    </linearGradient>
  </defs>
  <path
     d="m 526.9449,698.4101 c -3.2,6.061 -1.04,13.295 4.5391,19.3889 1.9409,-3.994 3.5411,-7.287 5.1401,-10.58 0.299,0.0791 0.5989,0.159 0.898,0.239 -0.896,3.4472 -1.7932,6.8941 -2.778,10.686 13.2908,-5.7288 16.962,-21.8299 7.0498,-34.1799 -5.186,4.8289 -11.8528,8.773 -14.849,14.446 z"
     style="fill:url(#grad55)"
     id="path447" />
  <defs
     id="defs454">
    <linearGradient
       id="grad56">
      <stop
         offset="0%"
         stop-color="#f15a24"
         stop-opacity="1.0000"
         id="stop449" />
      <stop
         offset="100%"
         stop-color="#fbb03b"
         stop-opacity="1.0000"
         id="stop451" />
    </linearGradient>
  </defs>
  <path
     d="m 975.1781,688.0171 c -0.908,-2.4199 -1.7771,-4.735 -2.645,-7.048 0.3078,-0.1211 0.6159,-0.2421 0.9249,-0.3609 1.6801,2.283 3.3619,4.5669 5.5579,7.5529 3.3871,-6.0769 3.9971,-11.4409 2.6711,-17.291 -2.168,-9.5539 -11.7831,-9.438 -18.341,-13.2821 -7.8631,8.875 -0.8541,30.2091 11.8321,30.4291 z"
     style="fill:url(#grad56)"
     id="path456" />
  <defs
     id="defs463">
    <linearGradient
       id="grad57">
      <stop
         offset="0%"
         stop-color="#f15a24"
         stop-opacity="1.0000"
         id="stop458" />
      <stop
         offset="100%"
         stop-color="#fbb03b"
         stop-opacity="1.0000"
         id="stop460" />
    </linearGradient>
  </defs>
  <path
     d="m 519.3741,668.25 c -4.2531,5.648 -2.728,12.975 1.205,20.065 2.4449,-3.45 4.3098,-6.0808 6.1739,-8.712 0.2829,0.169 0.5661,0.3391 0.849,0.508 -1.1489,2.6232 -2.2981,5.2472 -3.729,8.515 13.674,-3.1538 19.6481,-18.517 11.9781,-32.207 -5.7201,3.93 -12.695,6.808 -16.477,11.831 z"
     style="fill:url(#grad57)"
     id="path465" />
  <defs
     id="defs472">
    <linearGradient
       id="grad58">
      <stop
         offset="0%"
         stop-color="#f15a24"
         stop-opacity="1.0000"
         id="stop467" />
      <stop
         offset="100%"
         stop-color="#fbb03b"
         stop-opacity="1.0000"
         id="stop469" />
    </linearGradient>
  </defs>
  <path
     d="m 515.9791,638.2311 c -4.9102,4.9589 -4.3192,12.293 -1.5041,19.5809 2.4871,-2.5058 4.4161,-4.4498 6.3439,-6.393 0.2311,0.1732 0.4632,0.3461 0.6951,0.519 -1.182,2.2162 -2.363,4.4311 -3.668,6.8811 13.8849,-0.9521 21.753,-18.216 15.9539,-30.0441 -6.2708,3.1652 -13.4648,5.0581 -17.8208,9.4561 z"
     style="fill:url(#grad58)"
     id="path474" />
  <defs
     id="defs481">
    <linearGradient
       id="grad59">
      <stop
         offset="0%"
         stop-color="#f15a24"
         stop-opacity="1.0000"
         id="stop476" />
      <stop
         offset="100%"
         stop-color="#fbb03b"
         stop-opacity="1.0000"
         id="stop478" />
    </linearGradient>
  </defs>
  <path
     d="m 982.083,658.873 c -1.9179,-3.1099 -3.782,-6.133 -5.6481,-9.1559 0.2591,-0.1321 0.5171,-0.2651 0.775,-0.396 2.4512,2.6291 4.902,5.2591 7.6411,8.1981 5.8731,-15.0072 0.7571,-21.9952 -19.3379,-27.3521 -5.3241,13.254 2.6688,26.951 16.5699,28.7059 z"
     style="fill:url(#grad59)"
     id="path483" />
  <defs
     id="defs490">
    <linearGradient
       id="grad60">
      <stop
         offset="0%"
         stop-color="#f15a24"
         stop-opacity="1.0000"
         id="stop485" />
      <stop
         offset="100%"
         stop-color="#fbb03b"
         stop-opacity="1.0000"
         id="stop487" />
    </linearGradient>
  </defs>
  <path
     d="m 516.798,608.7531 c -5.3671,4.1989 -5.989,11.1679 -3.9481,18.458 1.5372,-1.0681 2.338,-1.633 3.1482,-2.186 0.8478,-0.578 1.7039,-1.145 2.5579,-1.717 0.2081,0.216 0.417,0.432 0.6271,0.648 -1.0622,1.5919 -2.124,3.1839 -3.3511,5.021 14.208,-0.847 22.8461,-12.4829 19.5329,-27.6131 -6.726,2.5291 -13.7928,3.6521 -18.5669,7.3891 z"
     style="fill:url(#grad60)"
     id="path492" />
  <defs
     id="defs499">
    <linearGradient
       id="grad61">
      <stop
         offset="0%"
         stop-color="#f15a24"
         stop-opacity="1.0000"
         id="stop494" />
      <stop
         offset="100%"
         stop-color="#fbb03b"
         stop-opacity="1.0000"
         id="stop496" />
    </linearGradient>
  </defs>
  <path
     d="m 983.82,628.6032 c -2.052,-2.5242 -3.9401,-4.8421 -5.8249,-7.1611 l 0.5738,-0.5701 c 2.586,2.073 5.1732,4.1451 8.208,6.577 2.645,-16.7919 -2.6768,-22.1559 -22.9578,-24.473 -3.2542,13.2571 6.6498,26.284 20.0009,25.6272 z"
     style="fill:url(#grad61)"
     id="path501" />
  <defs
     id="defs508">
    <linearGradient
       id="grad62">
      <stop
         offset="0%"
         stop-color="#f15a24"
         stop-opacity="1.0000"
         id="stop503" />
      <stop
         offset="100%"
         stop-color="#fbb03b"
         stop-opacity="1.0000"
         id="stop505" />
    </linearGradient>
  </defs>
  <path
     d="m 981.3219,599.2142 c -1.2439,-1.5662 -2.4259,-3.0521 -3.6088,-4.538 0.22,-0.1681 0.4379,-0.3351 0.6579,-0.502 1.6909,0.9618 3.3829,1.925 5.6741,3.2278 2.0449,-14.8408 -5.2112,-20.6708 -25.139,-20.9449 -2.0092,12.8599 9.426,24.5999 22.4158,22.7571 z"
     style="fill:url(#grad62)"
     id="path510" />
  <defs
     id="defs517">
    <linearGradient
       id="grad63">
      <stop
         offset="0%"
         stop-color="#f15a24"
         stop-opacity="1.0000"
         id="stop512" />
      <stop
         offset="100%"
         stop-color="#fbb03b"
         stop-opacity="1.0000"
         id="stop514" />
    </linearGradient>
  </defs>
  <path
     d="m 521.6209,579.9531 c -5.853,3.38 -7.3248,10.078 -6.0628,17.3979 3.2519,-1.923 5.9888,-3.5408 8.7259,-5.1588 0.1089,0.1959 0.218,0.3909 0.3271,0.5879 -2.1311,2.1249 -4.2621,4.2511 -6.8122,6.793 14.6001,0.504 24.7652,-10.3111 22.553,-24.4701 -6.389,1.527 -13.4549,1.8051 -18.731,4.8501 z"
     style="fill:url(#grad63)"
     id="path519" />
  <defs
     id="defs526">
    <linearGradient
       id="grad64">
      <stop
         offset="0%"
         stop-color="#f15a24"
         stop-opacity="1.0000"
         id="stop521" />
      <stop
         offset="100%"
         stop-color="#fbb03b"
         stop-opacity="1.0000"
         id="stop523" />
    </linearGradient>
  </defs>
  <path
     d="m 950.7579,551.6661 c -0.5599,12.4149 12.3321,22.593 24.66,19.1121 -2.0529,-1.6711 -3.968,-3.229 -5.8839,-4.788 0.1621,-0.207 0.324,-0.4131 0.487,-0.62 2.4239,1.0279 4.847,2.0568 7.518,3.189 0.0621,-12.1 -5.7509,-18.144 -16.903,-18.144 -2.927,8e-4 -6.224,0.417 -9.8781,1.2509 z"
     style="fill:url(#grad64)"
     id="path528" />
  <defs
     id="defs535">
    <linearGradient
       id="grad65">
      <stop
         offset="0%"
         stop-color="#f15a24"
         stop-opacity="1.0000"
         id="stop530" />
      <stop
         offset="100%"
         stop-color="#fbb03b"
         stop-opacity="1.0000"
         id="stop532" />
    </linearGradient>
  </defs>
  <path
     d="m 521.9579,568.7851 c 3.1331,-1.4811 6.1121,-2.8891 9.091,-4.2959 0.1361,0.1919 0.271,0.3858 0.4082,0.58 -2.378,1.8468 -4.7551,3.693 -7.2831,5.6559 12.113,3.7659 25.8239,-7.2771 24.7941,-19.565 -2.4072,-0.2219 -4.642,-0.335 -6.7102,-0.335 -14.559,0 -20.8349,5.582 -20.3,17.96 z"
     style="fill:url(#grad65)"
     id="path537" />
  <g
     id="Layer1000">
    <path
       d="m 755.1007,568.7749 c 3.873,0 7.0129,-3.1399 7.0129,-7.0118 0,-3.8732 -3.1399,-7.012 -7.0129,-7.012 -3.873,0 -7.0121,3.1388 -7.0121,7.012 0,3.8719 3.1391,7.0118 7.0121,7.0118 z"
       style="fill:#1b75bc;fill-opacity:0;fill-rule:evenodd"
       id="path539" />
  </g>
  <g
     id="Layer1001">
    <path
       d="m 763.544,582.8628 c 0.2579,-0.7758 0.5119,-1.459 0.758,-2.0299 4.5768,-10.6239 13.2029,-18.602 19.54,-26.291 10.5599,-12.8169 9.5018,-23.3161 9.5018,-23.3161 0,0 -1.8278,9.0252 -11.1629,19.3181 -6.0009,6.6169 -15.408,13.8209 -21.492,17.8339 -1.6109,1.061 -3.198,2.0891 -5.879,2.0891 -2.683,0 -4.2041,-0.9969 -5.421,-1.7889 -6.0619,-3.9442 -15.7969,-11.348 -21.9521,-18.1341 -9.3339,-10.2929 -11.1628,-19.3181 -11.1628,-19.3181 0,0 -1.0582,10.4992 9.502,23.3161 6.3369,7.689 14.9638,15.6671 19.5409,26.291 0.256,0.595 0.521,1.3159 0.7909,2.134 2.914,-0.552 5.9182,-0.8439 8.9932,-0.8439 2.8808,0 5.7019,0.254 8.443,0.7398 z"
       style="fill:#da1c5c;fill-opacity:0;fill-rule:evenodd"
       id="path542" />
  </g>
  <g
     id="Layer1002">
    <path
       d="m 693.7099,629.1934 c 0,-3.873 -3.1399,-7.0118 -7.012,-7.0118 -3.873,0 -7.0118,3.1388 -7.0118,7.0118 0,3.873 3.1388,7.0121 7.0118,7.0121 3.8721,0 7.012,-3.1391 7.012,-7.0121 z"
       style="fill:#1b75bc;fill-opacity:0;fill-rule:evenodd"
       id="path545" />
  </g>
  <defs
     id="defs553">
    <linearGradient
       id="grad66">
      <stop
         offset="0%"
         stop-color="#00efff"
         stop-opacity="1.0000"
         id="stop548" />
      <stop
         offset="100%"
         stop-color="#1c75bc"
         stop-opacity="1.0000"
         id="stop550" />
    </linearGradient>
  </defs>
  <path
     d="m 656.1611,590.9501 c 0,0 9.0249,1.828 19.3178,11.1631 6.6172,6.0009 13.8212,15.4068 17.8331,21.492 1.0621,1.6109 2.0899,3.198 2.0891,5.8788 8e-4,2.6832 -0.9961,4.204 -1.7881,5.4212 -3.945,6.0608 -11.3479,15.7969 -18.1349,21.9518 -10.2921,9.3331 -19.317,11.162 -19.317,11.162 0,0 10.4989,1.059 23.3149,-9.502 7.6899,-6.336 15.668,-14.9619 26.2911,-19.5398 0.557,-0.2401 1.2178,-0.4862 1.9698,-0.7382 -0.4439,-2.6248 -0.6789,-5.322 -0.6789,-8.0739 0,-3.202 0.3161,-6.3309 0.913,-9.358 -0.8461,-0.2781 -1.591,-0.5511 -2.2039,-0.8141 -10.6231,-4.578 -18.6012,-13.2038 -26.2911,-19.5409 -10.6761,-8.7971 -19.7441,-9.5321 -22.475,-9.5321 -0.5471,0 -0.8399,0.0301 -0.8399,0.0301 z"
     style="fill:url(#grad66)"
     id="path555" />
  <g
     id="Layer1003">
    <path
       d="m 754.129,690.5842 c -3.8741,0 -7.0132,3.1388 -7.0132,7.0118 0,3.8732 3.1391,7.012 7.0121,7.012 3.8729,0 7.0129,-3.1388 7.0129,-7.012 0,-3.873 -3.14,-7.0118 -7.0118,-7.0118 z"
       style="fill:#1b75bc;fill-opacity:0;fill-rule:evenodd"
       id="path557" />
  </g>
  <defs
     id="defs565">
    <linearGradient
       id="grad67">
      <stop
         offset="0%"
         stop-color="#ffd75c"
         stop-opacity="1.0000"
         id="stop560" />
      <stop
         offset="100%"
         stop-color="#f7941d"
         stop-opacity="1.0000"
         id="stop562" />
    </linearGradient>
  </defs>
  <path
     d="m 744.9269,678.527 c -4.5768,10.6231 -13.2038,18.6001 -19.5398,26.2911 -10.5602,12.816 -9.5031,23.3149 -9.5031,23.3149 0,0 1.8289,-9.0249 11.1639,-19.3178 6.001,-6.6172 15.408,-13.8212 21.4932,-17.833 1.6089,-1.0622 3.1969,-2.09 5.879,-2.09 2.6819,0 4.2029,0.9958 5.419,1.7878 6.0619,3.945 15.7978,11.3491 21.9529,18.1352 9.3339,10.2929 11.1631,19.3178 11.1631,19.3178 0,0 1.0568,-10.4989 -9.5031,-23.3149 -6.336,-7.691 -14.963,-15.668 -19.5401,-26.2911 -0.1358,-0.3158 -0.2749,-0.6698 -0.415,-1.0499 -2.7258,0.479 -5.5318,0.731 -8.3959,0.731 -3.3129,0 -6.548,-0.335 -9.671,-0.974 -0.1709,0.4771 -0.339,0.9111 -0.5031,1.2929 z"
     style="fill:url(#grad67)"
     id="path567" />
  <g
     id="Layer1004">
    <path
       d="m 815.5195,630.1657 c 0,3.873 3.1391,7.0118 7.012,7.0118 3.8719,0 7.011,-3.1388 7.011,-7.0118 0,-3.873 -3.1391,-7.0121 -7.011,-7.0121 -3.8729,0 -7.012,3.1391 -7.012,7.0121 z"
       style="fill:#1b75bc;fill-opacity:0;fill-rule:evenodd"
       id="path569" />
  </g>
  <g
     id="Layer1005">
    <path
       d="m 815.9169,635.7531 c -1.0619,-1.6101 -2.09,-3.1972 -2.09,-5.8791 0,-2.6821 0.9961,-4.2029 1.7881,-5.4201 3.9461,-6.0619 11.3491,-15.7969 18.1349,-21.9518 10.2932,-9.3342 19.317,-11.1631 19.317,-11.1631 0,0 -10.4978,-1.0579 -23.3138,9.502 -7.6901,6.3371 -15.6682,14.9641 -26.2911,19.5409 -0.3631,0.1562 -0.7741,0.3152 -1.2231,0.4771 0.591,3.0109 0.9051,6.122 0.9051,9.307 0,2.9919 -0.277,5.9201 -0.8,8.761 0.4071,0.1491 0.783,0.2959 1.118,0.4399 10.6229,4.576 18.601,13.203 26.2911,19.5401 12.816,10.5599 23.3138,9.502 23.3138,9.502 0,0 -9.0238,-1.8289 -19.317,-11.1631 -6.6169,-6.0009 -13.8208,-15.408 -17.833,-21.4928 z"
       style="fill:#da1c5c;fill-opacity:0;fill-rule:evenodd"
       id="path572" />
  </g>
  <defs
     id="defs581">
    <linearGradient
       id="grad68">
      <stop
         offset="0%"
         stop-color="#f58a28"
         stop-opacity="1.0000"
         id="stop575" />
      <stop
         offset="100%"
         stop-color="#ec1c24"
         stop-opacity="1.0000"
         id="stop577" />
    </linearGradient>
    <linearGradient
       xlink:href="#grad68"
       id="grad69"
       x1="0"
       y1="0"
       x2="0"
       y2="1"
       gradientTransform="rotate(137,0.5,0.5)"
       gradientUnits="objectBoundingBox" />
  </defs>
  <path
     d="m 715.1659,575.643 c -2.8278,2.8281 -4.1969,6.5642 -4.1068,10.269 -3.706,-0.0898 -7.4421,1.279 -10.2702,4.108 -5.4808,5.4822 -5.4808,14.3691 0,19.8502 0.7101,0.7098 1.4771,1.328 2.2861,1.853 l -0.0201,0.019 c 1.8802,1.328 4.1,2.3298 6.5061,3.0798 4.799,-14.2469 16.0951,-25.505 30.3661,-30.2519 -0.5822,-1.866 -1.3172,-3.6229 -2.2362,-5.1959 -0.6619,-1.3481 -1.5528,-2.6101 -2.6739,-3.7312 -2.7411,-2.7408 -6.3329,-4.1108 -9.925,-4.1108 -3.5929,0 -7.185,1.37 -9.9261,4.1108 z"
     style="fill:url(#grad69)"
     id="path583" />
  <g
     id="Layer1006">
    <path
       d="m 708.917,643.4415 c -1.571,0.5371 -3.0541,1.1891 -4.4031,1.9771 -1.347,0.6619 -2.6099,1.5528 -3.7298,2.674 -5.4822,5.4819 -5.4822,14.3688 0,19.851 2.8278,2.829 6.5639,4.197 10.2699,4.1068 -0.091,3.706 1.2781,7.441 4.1071,10.2702 5.4819,5.4819 14.3688,5.4819 19.851,0 0.709,-0.7101 1.3269,-1.476 1.8528,-2.285 l 0.0192,0.019 c 0.9519,-1.3501 1.7368,-2.8772 2.382,-4.5201 -14.637,-5.1089 -26.0461,-17.0969 -30.3491,-32.093 z"
       style="fill:#da1c5c;fill-opacity:0;fill-rule:evenodd"
       id="path585" />
  </g>
  <defs
     id="defs594">
    <linearGradient
       id="grad70">
      <stop
         offset="0%"
         stop-color="#00efff"
         stop-opacity="1.0000"
         id="stop588" />
      <stop
         offset="100%"
         stop-color="#1c75bc"
         stop-opacity="1.0000"
         id="stop590" />
    </linearGradient>
    <linearGradient
       xlink:href="#grad70"
       id="grad71"
       x1="0"
       y1="0"
       x2="0"
       y2="1"
       gradientTransform="rotate(-44,0.5,0.5)"
       gradientUnits="objectBoundingBox" />
  </defs>
  <path
     d="m 769.302,676.0742 c 0.3739,0.881 0.792,1.7249 1.256,2.5208 0.6639,1.3482 1.5551,2.6102 2.6751,3.731 5.4819,5.4822 14.3699,5.4822 19.851,0 2.829,-2.829 4.1978,-6.5639 4.1068,-10.2699 3.7061,0.0901 7.441,-1.2779 10.27,-4.1071 5.4822,-5.482 5.4822,-14.3689 0,-19.8508 -0.709,-0.7092 -1.476,-1.3272 -2.2848,-1.853 l 0.019,-0.019 c -1.2291,-0.8682 -2.6061,-1.595 -4.083,-2.2051 -4.593,15.276 -16.5832,27.3479 -31.8101,32.0531 z"
     style="fill:url(#grad71)"
     id="path596" />
  <defs
     id="defs603">
    <linearGradient
       id="grad72">
      <stop
         offset="0%"
         stop-color="#ffd75c"
         stop-opacity="1.0000"
         id="stop598" />
      <stop
         offset="100%"
         stop-color="#f7941d"
         stop-opacity="1.0000"
         id="stop600" />
    </linearGradient>
  </defs>
  <path
     d="m 773.2399,575.6492 c -0.7109,0.709 -1.3278,1.476 -1.855,2.285 l -0.0179,-0.019 c -1.2481,1.768 -2.209,3.839 -2.9429,6.0809 14.908,4.2951 26.8359,15.613 31.9768,30.1411 1.1772,-0.455 2.2961,-0.9802 3.3352,-1.586 1.3468,-0.663 2.6099,-1.5551 3.7299,-2.6751 5.4819,-5.481 5.4819,-14.3691 0,-19.851 -2.827,-2.8281 -6.562,-4.197 -10.2691,-4.1071 0.0901,-3.7069 -1.279,-7.4409 -4.1068,-10.2688 -2.7411,-2.7411 -6.3332,-4.1122 -9.9261,-4.1122 -3.5921,0 -7.1839,1.3711 -9.9241,4.1122 z"
     style="fill:url(#grad72)"
     id="path605" />
  <g
     id="Layer1007">
    <defs
       id="defs612">
      <linearGradient
         id="grad73">
        <stop
           offset="0%"
           stop-color="#f58a28"
           stop-opacity="1.0000"
           id="stop607" />
        <stop
           offset="100%"
           stop-color="#ec1c24"
           stop-opacity="1.0000"
           id="stop609" />
      </linearGradient>
    </defs>
    <path
       d="m 755.101,585.2652 c -2.814,0 -5.6421,0.265 -8.4059,0.7889 -1.957,0.3699 -3.9002,0.8739 -5.7761,1.4981 -13.2971,4.424 -23.9071,14.993 -28.3799,28.273 -0.61,1.8108 -1.1101,3.693 -1.4851,5.5928 -0.5669,2.8712 -0.8541,5.8141 -0.8541,8.748 0,2.5191 0.2132,5.0581 0.6341,7.5461 0.279,1.6469 0.65,3.2819 1.103,4.8611 4.0119,13.9839 14.616,25.1969 28.364,29.994 1.891,0.6599 3.8291,1.1948 5.76,1.5888 5.51,1.1262 11.3301,1.2061 16.888,0.2262 1.83,-0.3232 3.655,-0.7631 5.4241,-1.3102 14.305,-4.42 25.418,-15.6189 29.73,-29.9568 0.4689,-1.5622 0.8569,-3.1632 1.1509,-4.7602 0.4961,-2.691 0.7481,-5.4459 0.7481,-8.189 0,-2.916 -0.2852,-5.8428 -0.8462,-8.6998 -0.417,-2.1252 -0.9949,-4.2381 -1.7178,-6.2811 -4.826,-13.638 -15.997,-24.1681 -29.8842,-28.169 -1.4998,-0.4331 -3.0339,-0.788 -4.561,-1.059 -2.59,-0.4589 -5.2449,-0.6919 -7.8919,-0.6919 z m 0,91.531 c -3.1601,0 -6.317,-0.3172 -9.3869,-0.9442 -2.0061,-0.4108 -4.019,-0.9658 -5.9831,-1.6509 -14.2781,-4.9831 -25.2899,-16.6281 -29.4571,-31.15 -0.47,-1.6409 -0.8558,-3.3409 -1.146,-5.0499 -0.4369,-2.5841 -0.658,-5.22 -0.658,-7.8352 0,-3.0459 0.298,-6.1019 0.887,-9.0828 0.39,-1.9741 0.9091,-3.928 1.542,-5.8102 4.646,-13.7919 15.664,-24.7688 29.475,-29.3618 1.9482,-0.648 3.9671,-1.1721 6.0001,-1.5571 5.57,-1.055 11.3731,-1.0839 16.9211,-0.1009 1.586,0.2809 3.1799,0.6508 4.7378,1.101 14.4221,4.1539 26.0252,15.0908 31.036,29.2538 0.7512,2.122 1.3521,4.3172 1.785,6.5251 0.5831,2.967 0.877,6.006 0.877,9.0329 0,2.8482 -0.2599,5.7092 -0.7758,8.5031 -0.3062,1.6579 -0.7081,3.321 -1.1951,4.9439 -4.4779,14.8912 -16.0209,26.5212 -30.8761,31.1122 -1.8369,0.5669 -3.7338,1.025 -5.635,1.3609 -2.6759,0.4711 -5.417,0.7101 -8.1479,0.7101 z"
       style="fill:url(#grad73);fill-opacity:0"
       id="path614" />
  </g>
  <path
     d="m 755.1007,521.8491 c -6.7861,0 -13.608,0.64 -20.2762,1.902 -4.722,0.894 -9.4088,2.111 -13.9329,3.6162 -32.0791,10.6698 -57.6711,36.1658 -68.462,68.2018 -1.4721,4.3691 -2.6771,8.9082 -3.5819,13.4921 -1.368,6.9259 -2.0611,14.0261 -2.0611,21.1019 0,6.0761 0.5151,12.202 1.531,18.205 0.6721,3.9722 1.567,7.9171 2.6601,11.7261 9.6789,33.7311 35.257,60.7799 68.4229,72.3549 4.5601,1.5902 9.235,2.88 13.894,3.833 13.292,2.7161 27.33,2.9072 40.739,0.5442 4.4161,-0.7792 8.8169,-1.8422 13.085,-3.1612 34.505,-10.6619 61.3151,-37.677 71.716,-72.265 1.133,-3.7678 2.0681,-7.6309 2.7779,-11.4809 1.1951,-6.4919 1.802,-13.1389 1.802,-19.7561 0,-7.033 -0.6848,-14.0938 -2.0378,-20.9848 -1.0072,-5.1271 -2.4021,-10.2252 -4.144,-15.1532 -11.6422,-32.8978 -38.5911,-58.301 -72.091,-67.9519 -3.6181,-1.0431 -7.319,-1.902 -11.0032,-2.5551 -6.247,-1.1078 -12.6519,-1.669 -19.0378,-1.669 z m 0,220.801 c -7.6212,0 -15.239,-0.7668 -22.642,-2.2799 -4.841,-0.989 -9.697,-2.329 -14.4332,-3.981 -34.4429,-12.0209 -61.0069,-40.1119 -71.0589,-75.1439 -1.1361,-3.9591 -2.0659,-8.0572 -2.764,-12.181 -1.0551,-6.2331 -1.5891,-12.5921 -1.5891,-18.9012 0,-7.346 0.7191,-14.718 2.1401,-21.9109 0.94,-4.76 2.1921,-9.4751 3.7211,-14.0139 11.2059,-33.2711 37.7849,-59.7501 71.1,-70.831 4.6998,-1.5631 9.57,-2.827 14.4739,-3.7562 13.4371,-2.5438 27.4369,-2.6139 40.8189,-0.2418 3.826,0.678 7.6712,1.5709 11.4291,2.6538 34.7921,10.023 62.7811,36.405 74.8689,70.571 1.8122,5.118 3.2601,10.4131 4.3061,15.74 1.404,7.156 2.1161,14.487 2.1161,21.789 0,6.8712 -0.6302,13.7722 -1.872,20.5121 -0.737,4 -1.7082,8.0121 -2.8851,11.9259 -10.8009,35.9221 -38.6439,63.978 -74.4801,75.0512 -4.4328,1.37 -9.0059,2.475 -13.5929,3.2828 -6.4551,1.1381 -13.0689,1.715 -19.6569,1.715 z"
     style="fill:#be1e2d;fill-rule:evenodd"
     id="path617" />
  <defs
     id="defs624">
    <linearGradient
       id="grad74">
      <stop
         offset="0%"
         stop-color="#f15a24"
         stop-opacity="1.0000"
         id="stop619" />
      <stop
         offset="100%"
         stop-color="#fbb03b"
         stop-opacity="1.0000"
         id="stop621" />
    </linearGradient>
  </defs>
  <path
     d="m 746.9511,623.2752 c -12.6802,10.9979 2.5869,35.6429 6.7878,50.37 0.5032,1.8618 2.1501,1.9168 2.598,0.004 4.2361,-14.718 19.5602,-39.327 6.908,-50.354 -0.5658,-0.495 -1.3898,-0.5091 -1.9769,-0.0329 -0.5819,0.4748 -0.7341,1.2858 -0.3679,1.942 1.0449,1.8629 1.8298,4.6089 1.9928,6.7079 0.5102,6.715 -3.6559,10.0681 -7.8188,10.0619 -4.1621,-0.005 -8.32,-3.367 -7.793,-10.08 0.1678,-2.0999 0.9569,-4.8459 2.0089,-6.7068 0.3679,-0.6511 0.216,-1.4621 -0.3629,-1.94 -0.2871,-0.233 -0.6312,-0.349 -0.9742,-0.349 -0.3569,0 -0.7129,0.1259 -1.0018,0.377 z"
     style="fill:url(#grad74)"
     id="path626" />
  <path
     d="m 782.6671,624.0987 c 4.06,-0.9281 7.3649,-5.129 5.364,-11.5591 -0.6251,-2.0089 -2.0081,-4.5128 -3.441,-6.0908 -0.506,-0.561 -0.5392,-1.385 -0.0751,-1.9761 0.4629,-0.591 1.271,-0.7679 1.9341,-0.4059 7.101,3.799 9.837,12.2309 8.1909,21.3829 -4.8781,27.18 -31.8291,45.066 -33.6801,41.6129 8.3401,-7.5169 16.2281,-25.4268 11.5022,-33.4849 -5.2702,-8.971 -7.1141,-18.746 -1.899,-25.8871 0.4408,-0.6108 1.2478,-0.805 1.916,-0.4668 0.678,0.3319 1.006,1.0859 0.792,1.8068 -0.6112,2.05 -0.7682,4.9002 -0.4581,6.9902 0.9879,6.656 5.792,9.0009 9.8541,8.0779 z"
     style="fill:#2aa8e2;fill-rule:evenodd"
     id="path628" />
  <path
     d="m 727.5273,624.0349 c -4.059,-0.9391 -7.3551,-5.1491 -5.3391,-11.5721 0.6301,-2.0081 2.018,-4.5091 3.4552,-6.0821 0.5079,-0.5609 0.547,-1.385 0.081,-1.98 -0.462,-0.591 -1.2671,-0.769 -1.9332,-0.407 -7.1169,3.78 -9.866,12.2051 -8.242,21.3622 4.8152,27.193 31.7231,45.144 33.5752,41.6899 -8.316,-7.535 -16.1682,-25.4641 -11.4162,-33.5089 5.29,-8.9592 7.1572,-18.7271 1.9601,-25.882 -0.4379,-0.6111 -1.2461,-0.807 -1.9159,-0.4742 -0.6792,0.3311 -1.01,1.0871 -0.796,1.8082 0.6078,2.052 0.7509,4.9008 0.4419,6.988 -1.008,6.658 -5.813,8.9898 -9.871,8.058 z"
     style="fill:#f6207f;fill-rule:evenodd"
     id="path630" />
  <defs
     id="defs637">
    <linearGradient
       id="grad75">
      <stop
         offset="0%"
         stop-color="#f15a24"
         stop-opacity="1.0000"
         id="stop632" />
      <stop
         offset="100%"
         stop-color="#fbb03b"
         stop-opacity="1.0000"
         id="stop634" />
    </linearGradient>
  </defs>
  <path
     d="m 750.8201,636.303 c -0.003,2.359 1.9049,4.2681 4.2528,4.269 2.3531,0.006 4.2631,-1.9018 4.265,-4.258 0.003,-2.3499 -1.9029,-4.261 -4.2528,-4.263 -0.004,0 -0.008,0 -0.0122,0 -2.3439,0 -4.2519,1.906 -4.2528,4.252 z"
     style="fill:url(#grad75)"
     id="path639" />
  <path
     d="m 780.0762,614.3336 c 2.2969,-0.5269 4.5791,0.9131 5.1041,3.2091 0.5269,2.295 -0.9111,4.576 -3.2072,5.1018 -2.296,0.529 -4.5768,-0.9068 -5.1029,-3.2048 -0.5221,-2.2972 0.908,-4.5791 3.206,-5.1061 z"
     style="fill:#2aa8e2;fill-rule:evenodd"
     id="path641" />
  <path
     d="m 730.1363,614.2764 c -2.295,-0.533 -4.5882,0.8991 -5.1132,3.194 -0.5309,2.2961 0.9012,4.58 3.1941,5.1112 2.2901,0.5309 4.5799,-0.8972 5.114,-3.1961 0.525,-2.2949 -0.906,-4.5779 -3.1949,-5.1091 z"
     style="fill:#f6207f;fill-rule:evenodd"
     id="path643" />
  <path
     d="m 545.6088,523.3092 c -1.4539,0.805 -2.8089,1.6741 -4.1868,2.5509 l -4.159,2.673 0.0218,4.906 0.26,4.9201 c -2.7819,-1.944 -5.5528,-3.9201 -8.3098,-5.9261 -3.1691,1.112 -6.366,2.2901 -9.587,3.5362 l 1.5618,-4.9731 0.783,-2.4931 c 0.252,-0.8348 0.5261,-1.6608 0.841,-2.4718 -1.9718,-2.7612 -3.918,-5.58 -5.8368,-8.456 3.4268,0.0618 6.8349,0.1698 10.22,0.324 0.995,-1.406 2.147,-2.7292 3.229,-4.076 l 3.2768,-4.0031 c 0.741,3.3631 1.516,6.6629 2.3222,9.8989 z"
     style="fill:#be1e2d;fill-rule:evenodd"
     id="path645" />
  <path
     d="m 575.5253,477.3307 c -1.6018,0.4371 -3.1368,0.949 -4.6808,1.4751 l -4.6772,1.601 -1.1528,4.7719 -0.9312,4.839 c -2.2348,-2.5549 -4.4498,-5.137 -6.645,-7.746 -3.3449,0.3189 -6.7309,0.6959 -10.1579,1.1311 l 2.7099,-4.451 1.3592,-2.23 c 0.445,-0.7501 0.9088,-1.4871 1.408,-2.1991 -1.2532,-3.153 -2.4682,-6.3559 -3.644,-9.6081 3.312,0.8822 6.594,1.8031 9.8439,2.7621 1.3011,-1.1279 2.7451,-2.1291 4.1119,-3.183 l 4.1352,-3.1059 c -0.0811,3.4429 -0.1162,6.8349 -0.1071,10.171 z"
     style="fill:#be1e2d;fill-rule:evenodd"
     id="path647" />
  <path
     d="m 615.5531,439.8005 -2.473,0.106 -2.431,0.2019 -4.9198,0.447 -2.2512,4.367 c -0.72,1.4721 -1.3839,2.99 -2.0639,4.4689 -1.5631,-3.0138 -3.1,-6.05 -4.6129,-9.108 -3.3222,-0.4828 -6.6982,-0.921 -10.127,-1.3108 l 3.6859,-3.685 c 1.2401,-1.2192 2.4381,-2.4922 3.7491,-3.6332 -0.4692,-3.3639 -0.889,-6.766 -1.258,-10.2058 3.0058,1.6429 5.9728,3.3159 8.8999,5.0198 3.1459,-1.4618 6.3669,-2.7748 9.5099,-4.1428 -0.8968,3.329 -1.7359,6.6178 -2.5188,9.864 z"
     style="fill:#be1e2d;fill-rule:evenodd"
     id="path649" />
  <path
     d="m 663.356,412.919 -2.4251,-0.4921 -2.408,-0.3849 -4.881,-0.7441 -3.2289,3.7012 c -1.0559,1.2458 -2.058,2.571 -3.0719,3.8429 -0.7971,-3.3009 -1.565,-6.6169 -2.3032,-9.9479 -3.109,-1.262 -6.2818,-2.4931 -9.5179,-3.689 l 4.4589,-2.7011 c 1.4922,-0.8941 2.9651,-1.8341 4.5111,-2.6289 0.3501,-3.378 0.7571,-6.783 1.222,-10.2121 2.526,2.3139 5.006,4.6491 7.4401,7.0041 3.405,-0.6661 6.8488,-1.1661 10.228,-1.739 -1.6702,3.0149 -3.274,6.006 -4.811,8.9688 z"
     style="fill:#be1e2d;fill-rule:evenodd"
     id="path651" />
  <path
     d="m 716.202,398.3107 c -2.9599,-1.3822 -5.959,-2.5991 -9.0369,-3.8931 -1.3541,0.9419 -2.7019,1.849 -4.0249,2.8099 l -3.9041,3.0022 c 0.021,-3.3931 0.0751,-6.7941 0.1621,-10.2022 -2.7142,-1.98 -5.4992,-3.9458 -8.354,-5.894 3.32,-1.0029 6.6348,-2.0818 9.9888,-3.0229 1.1551,-3.187 2.372,-6.385 3.651,-9.593 1.8952,2.859 3.74,5.7291 5.536,8.606 0.8652,0.0371 1.7252,0.0499 2.5892,0.106 l 2.596,0.22 5.1579,0.445 c -2.3479,2.5109 -4.627,5.0071 -6.8349,7.503 z"
     style="fill:#be1e2d;fill-rule:evenodd"
     id="path653" />
  <path
     d="m 771.0703,396.8077 c -2.5549,-1.9899 -5.173,-3.988 -7.8551,-5.9921 -1.537,0.5272 -3.0708,1.2461 -4.5848,1.868 l -4.511,1.9321 c 0.8299,-3.2811 1.692,-6.5619 2.588,-9.8419 -2.1651,-2.5962 -4.4022,-5.195 -6.7071,-7.7941 l 10.4159,-0.4791 c 0.94,-1.436 1.897,-2.9018 2.867,-4.3098 l 2.956,-4.1902 c 1.1591,3.2451 2.2691,6.4871 3.3301,9.7251 l 4.9669,1.4749 c 1.6452,0.5202 3.274,1.133 4.9002,1.694 l -4.2551,2.7751 c -1.402,0.938 -2.7961,1.9721 -4.1669,2.9551 z"
     style="fill:#be1e2d;fill-rule:evenodd"
     id="path655" />
  <path
     d="m 824.6621,408.3955 c -1.9979,-2.5478 -4.0329,-5.1948 -6.1719,-7.727 l -9.726,1.4891 c 1.586,-2.9801 3.206,-5.9511 4.8578,-8.9139 -1.4749,-3.0642 -3.013,-6.1682 -4.6659,-9.1102 l 2.577,0.4062 2.5509,0.5258 5.11,1.065 c 2.509,-2.3179 5.1021,-4.6908 7.712,-6.9109 0.3461,3.4379 0.6431,6.8621 0.892,10.2699 l 4.4561,2.6612 c 0.737,0.449 1.4811,0.8699 2.207,1.3399 l 2.1589,1.4369 c -3.208,1.0341 -6.429,2.3142 -9.5629,3.5632 z"
     style="fill:#be1e2d;fill-rule:evenodd"
     id="path657" />
  <path
     d="m 873.8945,432.5299 -2.016,-4.4869 c -0.6939,-1.4902 -1.359,-3.058 -2.1249,-4.4921 l -9.792,-0.9139 c 2.2578,-2.5081 4.544,-5.002 6.8599,-7.4781 l -1.086,-5.021 c -0.3971,-1.646 -0.8209,-3.2791 -1.2549,-4.9331 3.2329,1.2952 6.3099,2.901 9.4578,4.3971 2.9962,-1.65 6.0662,-3.3021 9.1511,-4.86 -0.4921,3.4209 -1.0281,6.817 -1.607,10.186 l 3.6831,3.6581 1.823,1.8258 1.7509,1.914 c -3.3619,0.2341 -6.8031,0.712 -10.1401,1.163 z"
     style="fill:#be1e2d;fill-rule:evenodd"
     id="path659" />
  <path
     d="m 915.9521,467.7561 c -0.5879,-3.1862 -1.1599,-6.4772 -1.8811,-9.7112 l -9.2999,-3.2179 c 2.7919,-1.8981 5.6081,-3.7729 8.449,-5.6259 l 0.14,-5.1322 c 0.023,-1.7098 -0.011,-3.3848 -0.034,-5.0969 l 2.088,1.5641 c 0.6979,0.5199 1.3459,1.095 2.0219,1.641 l 4.0241,3.3228 c 3.299,-0.8859 6.6909,-1.7748 10.0381,-2.5319 -1.2932,3.2031 -2.6212,6.3711 -3.985,9.504 1.7938,2.982 3.6788,5.841 5.2818,8.9149 -1.6968,-0.254 -3.3208,-0.5488 -5.042,-0.7319 l -5.078,-0.557 z"
     style="fill:#be1e2d;fill-rule:evenodd"
     id="path661" />
  <path
     d="m 948.4054,511.9819 c 0.193,-3.234 0.4008,-6.5528 0.4958,-9.879 l -8.2758,-5.332 c 3.1649,-1.18 6.3468,-2.3309 9.5488,-3.4548 0.925,-3.2712 1.8292,-6.6121 2.545,-9.9131 l 1.6591,2.0141 1.5619,2.0829 3.1221,4.183 c 3.4109,-0.0711 6.94,-0.14 10.3461,-0.0609 -2.018,2.8018 -4.0632,5.5619 -6.1322,8.278 1.0432,3.318 2.1751,6.5529 3.0002,9.9199 -1.5831,-0.6529 -3.1042,-1.3201 -4.714,-1.9191 l -4.8022,-1.751 z"
     style="fill:#be1e2d;fill-rule:evenodd"
     id="path663" />
  <path
     d="m 607.4009,475.7458 c 21.1431,-18.7262 45.917,-33.2731 72.557,-42.4392 26.623,-9.2029 55.0409,-13.0589 83.105,-11.37 28.0639,1.694 55.751,8.93 80.964,21.2082 25.2349,12.246 47.9231,29.5549 66.504,50.5018 12.751,14.4252 23.5391,30.5442 31.9801,47.7901 2.2649,-2.931 4.5298,-5.8631 6.7958,-8.795 0.1732,-0.1729 0.3512,-0.3359 0.525,-0.5071 -8.708,-16.308 -19.4258,-31.527 -31.8209,-45.1928 -19.673,-21.6992 -43.598,-39.5291 -70.05,-52.0072 -26.432,-12.5139 -55.3119,-19.7099 -84.4529,-21.1468 -29.141,-1.434 -58.525,2.8919 -85.9422,12.7069 -27.4349,9.7761 -52.8248,25.079 -74.3559,44.5759 -10.726,9.792 -20.5089,20.609 -29.1299,32.2742 -8.6182,11.6679 -16.0291,24.207 -22.1542,37.3218 -0.0978,0.2111 -0.1888,0.4252 -0.286,0.6361 1.4232,0.6329 2.8312,1.3181 4.229,2.042 0.104,-0.2131 0.2021,-0.4291 0.307,-0.6409 12.5291,-25.416 30.0591,-48.259 51.2251,-66.958 z"
     style="fill:#2aa8e2;fill-rule:evenodd"
     id="path665" />
  <path
     d="m 503.9999,1071.001 c 41,-1.6549 82,-2.5209 123.0001,-3.1088 20.5001,-0.369 41,-0.4512 61.4999,-0.6672 l 61.5001,-0.2209 61.5,0.2101 30.7499,0.282 15.3751,0.15 15.3751,0.2338 c 40.9998,0.586 81.9998,1.4562 122.9999,3.121 -41.0001,1.6651 -82.0001,2.5361 -122.9999,3.1221 l -15.3751,0.233 -15.3751,0.1499 -30.7499,0.2832 -61.5,0.2098 -61.5001,-0.2208 C 668,1074.5622 647.5001,1074.4802 627,1074.11 c -41.0001,-0.5879 -82.0001,-1.4539 -123.0001,-3.109 z"
     style="fill:#2aa8e2;fill-rule:evenodd"
     id="path667" />
  <path
     d="m 503.9999,1128.0012 c 41,-1.6552 82,-2.5212 123.0001,-3.1091 20.5001,-0.369 41,-0.451 61.4999,-0.667 L 750,1124.004 l 61.5,0.2101 30.7499,0.282 15.3751,0.15 15.3751,0.2339 c 40.9998,0.5862 81.9998,1.4561 122.9999,3.1212 -41.0001,1.6648 -82.0001,2.5359 -122.9999,3.1218 l -15.3751,0.233 -15.3751,0.1502 -30.7499,0.2829 -61.5,0.2101 -61.5001,-0.2211 c -20.4999,-0.216 -40.9998,-0.298 -61.4999,-0.6679 -41.0001,-0.5882 -82.0001,-1.4542 -123.0001,-3.109 z"
     style="fill:#2aa8e2;fill-rule:evenodd"
     id="path669" />
</svg>
